<?xml version="1.0" encoding="utf-8"?>
<!-- Generator: Adobe Illustrator 24.3.0, SVG Export Plug-In . SVG Version: 6.00 Build 0)  -->
<svg version="1.1" id="Capa_1" xmlns="http://www.w3.org/2000/svg" xmlns:xlink="http://www.w3.org/1999/xlink" x="0px" y="0px"
	 viewBox="0 0 300 300" style="enable-background:new 0 0 300 300;" xml:space="preserve">
<style type="text/css">
	.st0{fill:#FFFFFF;}
	.st1{fill:#E20613;}
	.st2{fill:#E10A19;}
	.st3{fill:none;stroke:#000000;stroke-miterlimit:10;}
	.st4{fill:#C60C1E;}
	.st5{fill:#0D0D0D;}
	.st6{fill:#FFFFFF;stroke:#FFFFFF;stroke-miterlimit:10;}
</style>
<g>
	<path class="st3" d="M43.49,166.9c-0.02,0.01-0.04,0.01-0.04,0.01"/>
	<g>
		<path class="st4" d="M44.53,140.29L17.29,169h8.39l6.42-6.66h13.02L45.01,169h8.01l2.53-28.71H44.53z M46.02,156.81h-9.27
			l10.1-10.73L46.02,156.81z"/>
		<path class="st4" d="M81.59,146.87l-8.08,16.45h-5.62c-0.66,0-1.2-0.06-1.62-0.18c-0.42-0.12-0.5-0.46-0.22-1.02l7.5-15.25h-7.18
			l-9.23,18.78c-0.17,0.34-0.25,0.7-0.23,1.09c0.01,0.39,0.1,0.75,0.26,1.09c0.16,0.34,0.39,0.62,0.69,0.83
			c0.3,0.22,0.64,0.33,1.02,0.33h19.4l10.88-22.13H81.59z"/>
		<path class="st4" d="M102.47,151.97h7.29l2.5-5.09h-7.25l3-6.11h-7.17l-3.01,6.11h-5.47l-2.5,5.09h5.31l-4.87,9.9
			c-1.06,2.16-1.34,3.87-0.84,5.11c0.5,1.25,1.8,2,3.91,2.24c0.8,0.07,1.61,0.11,2.41,0.11c0.96,0,1.9-0.04,2.83-0.11
			c0.92-0.07,1.85-0.15,2.78-0.25l2.49-5.06c-0.2,0-0.37,0.01-0.5,0.02c-0.13,0.01-0.27,0.03-0.41,0.06
			c-0.45,0.05-0.96,0.09-1.51,0.14c-0.55,0.05-1.08,0.07-1.59,0.07c-0.55,0-1.07-0.04-1.53-0.13c-0.46-0.08-0.74-0.26-0.84-0.53
			c-0.25-0.46,0.02-1.5,0.82-3.13L102.47,151.97z"/>
		<path class="st4" d="M137.74,149.27c-0.12-0.53-0.38-0.96-0.8-1.27c-0.41-0.31-0.92-0.55-1.51-0.71
			c-0.59-0.15-1.26-0.26-1.97-0.31c-0.72-0.05-1.45-0.07-2.19-0.07h-6.87c-0.76,0-1.53,0.02-2.32,0.07
			c-0.78,0.05-1.56,0.15-2.32,0.31c-0.76,0.16-1.5,0.4-2.22,0.71c-0.72,0.32-1.41,0.74-2.05,1.27c-0.55,0.46-0.99,0.92-1.32,1.39
			c-0.32,0.46-0.61,0.93-0.85,1.42l-5.8,11.79c-0.24,0.48-0.42,0.96-0.55,1.42c-0.12,0.46-0.13,0.91-0.02,1.35
			c0.12,0.53,0.39,0.96,0.8,1.27c0.41,0.31,0.92,0.55,1.53,0.71c0.61,0.15,1.28,0.26,2.02,0.31c0.74,0.05,1.48,0.07,2.24,0.07h6.88
			c0.73,0,1.48-0.02,2.24-0.06c0.77-0.04,1.53-0.14,2.3-0.31c0.77-0.17,1.51-0.4,2.25-0.7c0.73-0.31,1.42-0.74,2.08-1.29
			c0.56-0.46,0.99-0.91,1.3-1.37c0.31-0.45,0.59-0.93,0.84-1.43l5.77-11.76c0.24-0.48,0.42-0.95,0.54-1.4
			C137.85,150.22,137.85,149.76,137.74,149.27z M129.11,153.24c-0.04,0.34-0.2,0.79-0.47,1.35l-3.29,6.69
			c-0.17,0.34-0.31,0.59-0.43,0.77c-0.12,0.17-0.3,0.34-0.54,0.51c-0.41,0.27-0.83,0.47-1.26,0.6c-0.43,0.13-0.87,0.24-1.31,0.31
			c-0.44,0.07-0.87,0.12-1.29,0.13c-0.42,0.01-0.83,0.02-1.21,0.02c-0.36,0-0.72-0.01-1.11-0.02c-0.39-0.01-0.77-0.06-1.13-0.13
			c-0.37-0.07-0.7-0.17-1.01-0.31c-0.3-0.13-0.53-0.33-0.67-0.6c-0.09-0.17-0.11-0.34-0.06-0.51c0.06-0.17,0.17-0.42,0.34-0.77
			l3.29-6.69c0.27-0.56,0.55-1.01,0.83-1.35c0.28-0.34,0.66-0.59,1.12-0.77c0.66-0.19,1.35-0.36,2.08-0.49
			c0.74-0.13,1.45-0.2,2.13-0.2c0.73,0,1.42,0.07,2.05,0.2c0.63,0.13,1.16,0.3,1.6,0.49C129.03,152.65,129.15,152.9,129.11,153.24z"
			/>
		<path class="st5" d="M145.32,159.03l5.2-10.59c0.23-0.41,0.53-0.74,0.91-1c0.38-0.25,0.79-0.45,1.24-0.58
			c0.45-0.13,0.91-0.21,1.4-0.25c0.48-0.04,0.97-0.06,1.45-0.06l12.06,0.04l3.1-6.29c-1.8,0-3.58-0.01-5.34-0.02
			c-1.77-0.01-3.52-0.02-5.27-0.02h-2.64c-0.87,0-1.75,0.01-2.62,0.04c-0.8,0.02-1.69,0.17-2.67,0.45
			c-0.97,0.28-1.93,0.66-2.87,1.15c-0.94,0.48-1.8,1.06-2.6,1.73c-0.8,0.67-1.4,1.4-1.83,2.2l-8.75,17.79
			c-0.25,0.78-0.31,1.5-0.17,2.16c0.14,0.67,0.44,1.24,0.88,1.71c0.44,0.48,1,0.85,1.67,1.12c0.67,0.26,1.39,0.4,2.15,0.4h15.95
			l3.19-6.48h-14.05c-0.4,0-0.69-0.1-0.85-0.31c-0.17-0.21-0.25-0.48-0.25-0.8c-0.01-0.32,0.06-0.7,0.2-1.11
			C144.93,159.89,145.11,159.46,145.32,159.03z"/>
		<path class="st5" d="M175.85,138.94l-10.54,22.6l-2.29,4.92c0.05,0.15,0.11,0.31,0.19,0.45h6l1.19-3.12l9.45-24.85H175.85z"/>
		<path class="st5" d="M202.06,147.42c-0.31-0.36-0.83-0.55-1.59-0.55h-16.03l-2.5,5.09h10.33c0.33,0,0.65,0.01,0.96,0.02
			c0.31,0.01,0.58,0.04,0.79,0.09c0.22,0.05,0.37,0.14,0.46,0.28c0.09,0.13,0.07,0.31-0.04,0.53l-0.88,1.78
			c-1.48-0.02-2.89-0.04-4.21-0.04h-4.24c-0.71,0-1.4,0.08-2.09,0.23c-0.69,0.16-1.33,0.39-1.94,0.69c-0.61,0.31-1.16,0.7-1.68,1.18
			c-0.52,0.48-0.95,1.05-1.3,1.71c-0.3,0.56-0.61,1.16-0.92,1.8c-0.32,0.64-0.63,1.28-0.94,1.91c-0.58,1.19-1.05,2.21-1.4,3.07
			c-0.34,0.86-0.48,1.58-0.42,2.13c0.07,0.56,0.38,0.97,0.95,1.24c0.56,0.26,1.48,0.4,2.75,0.4h15.07c1.2-2.43,2.21-4.49,3.04-6.18
			c0.83-1.7,1.53-3.11,2.1-4.24c0.57-1.13,1.02-2.03,1.34-2.69c0.33-0.67,0.59-1.21,0.8-1.62l0.64-1.31
			c0.34-0.7,0.66-1.42,0.93-2.15c0.26-0.72,0.41-1.38,0.43-1.96C202.5,148.26,202.36,147.78,202.06,147.42z M189.08,163.94
			c-0.15,0-0.39,0.01-0.71,0.02c-0.32,0.01-0.73,0.02-1.21,0.02c-0.75,0.02-1.51,0.03-2.27,0.03h-1.92c-0.58,0-0.88-0.15-0.87-0.47
			c0-0.31,0.07-0.61,0.2-0.87l0.66-1.35c0.28-0.56,0.56-0.96,0.86-1.22c0.3-0.25,0.72-0.38,1.25-0.38h6.07L189.08,163.94z"/>
		<path class="st5" d="M212.39,153.2c0.19-0.39,0.39-0.69,0.6-0.91c0.21-0.22,0.51-0.33,0.92-0.33h13.97l2.5-5.09h-14.42
			c-0.74,0-1.51,0.03-2.35,0.09c-0.83,0.06-1.64,0.2-2.43,0.42c-0.79,0.22-1.53,0.55-2.21,0.99c-0.69,0.44-1.26,1.03-1.73,1.78
			l-3.14,6.41c-0.24,0.49-0.36,0.96-0.37,1.4c-0.01,0.45,0.1,0.85,0.31,1.18c0.21,0.34,0.52,0.61,0.93,0.82
			c0.4,0.21,0.89,0.31,1.48,0.31h8.13c0.63,0,1.01,0.16,1.13,0.47c0.12,0.32,0.09,0.68-0.12,1.09c-0.49,1-1.38,1.5-2.67,1.5h-12.15
			l-2.79,5.68h13.55c1.24,0,2.4-0.09,3.49-0.26c1.08-0.17,2.07-0.42,2.95-0.74c0.88-0.33,1.65-0.75,2.29-1.26
			c0.64-0.51,1.13-1.12,1.48-1.82l2.5-5.09c0.13-0.27,0.28-0.57,0.43-0.91c0.15-0.34,0.28-0.64,0.36-0.91
			c0.21-0.68,0.22-1.22,0.03-1.62c-0.18-0.4-0.48-0.71-0.91-0.93c-0.42-0.21-0.93-0.36-1.51-0.42c-0.58-0.06-1.15-0.09-1.7-0.09
			h-7.31c-0.48,0-0.85-0.02-1.11-0.07c-0.26-0.05-0.42-0.13-0.5-0.27c-0.07-0.13-0.07-0.31-0.01-0.53
			C212.09,153.86,212.21,153.57,212.39,153.2z"/>
		<path class="st5" d="M255.37,148.6c-0.09-0.42-0.29-0.77-0.61-1.04c-0.32-0.27-0.74-0.45-1.24-0.56c-0.5-0.11-1.02-0.17-1.56-0.17
			h-11.87c-1.12,0-2.05,0.13-2.81,0.39c-0.76,0.25-1.39,0.56-1.87,0.91c-0.49,0.35-0.86,0.69-1.09,1.02
			c-0.24,0.33-0.39,0.56-0.47,0.71l-7.74,15.76c-0.32,0.85-0.29,1.5,0.07,1.94c0.36,0.45,0.88,0.78,1.55,1.01
			c0.67,0.21,1.41,0.34,2.24,0.38c0.82,0.04,1.54,0.06,2.18,0.06h13.06l2.79-5.68h-12.15c-0.36,0-0.61-0.09-0.75-0.26
			c-0.15-0.17-0.23-0.39-0.25-0.66c-0.02-0.26,0.02-0.56,0.1-0.87c0.09-0.32,0.21-0.62,0.36-0.91h14.58l5.12-10.41
			C255.34,149.56,255.45,149.02,255.37,148.6z M246.51,153.31l-0.63,1.27c-0.28,0.56-0.56,0.96-0.87,1.22
			c-0.3,0.25-0.71,0.38-1.24,0.38h-6.04l2.08-4.22h6.04c0.58,0,0.86,0.16,0.86,0.48C246.71,152.76,246.64,153.04,246.51,153.31z"/>
		<path class="st5" d="M264.71,153.2c0.19-0.39,0.39-0.69,0.6-0.91c0.21-0.22,0.51-0.33,0.93-0.33h13.97l2.51-5.09h-14.42
			c-0.74,0-1.51,0.03-2.34,0.09c-0.83,0.06-1.64,0.2-2.43,0.42c-0.79,0.22-1.53,0.55-2.21,0.99c-0.69,0.44-1.26,1.03-1.73,1.78
			l-3.14,6.41c-0.24,0.49-0.36,0.96-0.37,1.4c-0.01,0.45,0.1,0.85,0.31,1.18c0.21,0.34,0.52,0.61,0.93,0.82
			c0.4,0.21,0.9,0.31,1.48,0.31h8.12c0.63,0,1.01,0.16,1.13,0.47c0.12,0.32,0.09,0.68-0.12,1.09c-0.49,1-1.38,1.5-2.67,1.5h-12.15
			L250.3,169h13.54c1.24,0,2.4-0.09,3.49-0.26c1.08-0.17,2.07-0.42,2.95-0.74c0.88-0.33,1.65-0.75,2.29-1.26
			c0.64-0.51,1.14-1.12,1.48-1.82l2.51-5.09c0.13-0.27,0.27-0.57,0.43-0.91c0.15-0.34,0.27-0.64,0.35-0.91
			c0.21-0.68,0.22-1.22,0.04-1.62c-0.18-0.4-0.49-0.71-0.92-0.93c-0.42-0.21-0.93-0.36-1.5-0.42c-0.58-0.06-1.15-0.09-1.71-0.09
			h-7.31c-0.48,0-0.85-0.02-1.11-0.07c-0.25-0.05-0.42-0.13-0.49-0.27c-0.07-0.13-0.08-0.31-0.01-0.53
			C264.41,153.86,264.53,153.57,264.71,153.2z"/>
	</g>
	<polygon class="st5" points="151.65,102.44 183.7,101.19 178.61,108.35 147.98,108.63 	"/>
	<polygon class="st5" points="70.08,118.67 84.75,114.42 85.67,116.84 71.55,119.88 	"/>
	<path class="st5" d="M89.27,113.46c0,0,23.56-5.49,24.03-5.43l1.63,3.73l-24.64,4.38L89.27,113.46z"/>
	<path class="st5" d="M116.92,107.01c0,0,29.7-4.31,30.87-4.15l-2.32,5.84c0,0-27.38,2.87-27.51,3
		C117.83,111.82,116.92,107.01,116.92,107.01z"/>
	<path class="st4" d="M183.78,109.34l7.64-8.22c0,0,24.16,1.75,28.37,5.14l-12.35,7.1C207.44,113.37,188.86,109.61,183.78,109.34z"
		/>
	<path class="st4" d="M229.6,107.84c0,0,30.59,9,43.46,32.48l-34.84-8.68c0,0-4.57-8.19-23.95-16.83L229.6,107.84z"/>
	<path class="st5" d="M197.56,92.4l-13.97,36.73l-3.74,9.82l-9.45,24.85l-1.19,3.12h-6c-0.08-0.15-0.14-0.3-0.19-0.45l2.29-4.92
		l10.54-22.6l1.7-3.63L197.56,92.4z"/>
	<path class="st5" d="M170.66,165.19c0,2.17-1.76,3.93-3.93,3.93c-1.56,0-2.9-0.9-3.52-2.21c-0.08-0.15-0.14-0.3-0.19-0.45
		c-0.14-0.4-0.21-0.82-0.21-1.26c0-1.67,1.04-3.09,2.51-3.65c0.44-0.18,0.92-0.28,1.42-0.28c1.67,0,3.1,1.05,3.67,2.53
		C170.57,164.22,170.66,164.7,170.66,165.19z"/>
	<rect x="24.14" y="177.2" class="st5" width="255.84" height="24.81"/>
	<rect x="24.14" y="177.2" class="st0" width="6.6" height="6.32"/>
	<rect x="30.73" y="183.52" class="st0" width="6.6" height="6.32"/>
	<rect x="43.92" y="183.52" class="st0" width="6.6" height="6.32"/>
	<rect x="37.33" y="177.2" class="st0" width="6.6" height="6.32"/>
	<rect x="50.52" y="177.2" class="st0" width="6.6" height="6.32"/>
	<rect x="24.14" y="189.47" class="st0" width="6.6" height="6.32"/>
	<rect x="30.73" y="195.79" class="st0" width="6.6" height="6.32"/>
	<rect x="43.92" y="195.79" class="st0" width="6.6" height="6.32"/>
	<rect x="37.33" y="189.47" class="st0" width="6.6" height="6.32"/>
	<rect x="50.52" y="189.47" class="st0" width="6.6" height="6.32"/>
	<rect x="246.99" y="177.2" class="st0" width="6.6" height="6.32"/>
	<rect x="253.59" y="183.52" class="st0" width="6.6" height="6.32"/>
	<rect x="260.19" y="177.2" class="st0" width="6.6" height="6.32"/>
	<rect x="266.78" y="183.52" class="st0" width="6.6" height="6.23"/>
	<rect x="273.38" y="177.2" class="st0" width="6.6" height="6.32"/>
	<rect x="246.99" y="189.47" class="st0" width="6.6" height="6.32"/>
	<rect x="253.59" y="195.79" class="st0" width="6.6" height="6.32"/>
	<rect x="260.19" y="189.47" class="st0" width="6.6" height="6.32"/>
	<rect x="266.78" y="195.38" class="st0" width="6.6" height="6.64"/>
	<rect x="273.38" y="189.47" class="st0" width="6.6" height="6.32"/>
	<g>
		<path class="st6" d="M84.13,180.14h3.28l-4.4,19.28h-3.28L84.13,180.14z M85.37,180.14h7.64c2.53,0,4.61,0.31,6.22,0.92
			c1.61,0.61,2.75,1.43,3.4,2.46c0.65,1.03,0.86,2.16,0.62,3.4c-0.27,1.41-0.98,2.66-2.14,3.77s-2.71,1.99-4.66,2.64
			c-1.95,0.65-4.17,0.98-6.68,1h-8.12L85.37,180.14z M90.45,192.15c2.56,0,4.67-0.48,6.32-1.43c1.65-0.95,2.6-2.22,2.84-3.82
			c0.24-1.46-0.29-2.59-1.58-3.4c-1.29-0.8-3.07-1.21-5.34-1.21h-7l-2.6,9.85H90.45z"/>
		<path class="st6" d="M120.45,180.14h4.28l5.92,19.28h-3.76l-1.24-4.19h-13.16l-3.12,4.19h-3.88L120.45,180.14z M124.97,192.96
			l-2.96-10.38l-7.84,10.38H124.97z"/>
		<path class="st6" d="M144.29,180.14h3.28l-4.4,19.28h-3.28L144.29,180.14z M143.53,188.74h7.44c3.49,0,6.12,0.39,7.88,1.18
			s2.57,1.99,2.44,3.62c-0.08,1.02-0.61,1.98-1.6,2.89s-2.34,1.63-4.06,2.18c-1.72,0.55-3.69,0.82-5.9,0.82h-8.92L143.53,188.74z
			 M149.69,197.26c2.21,0,4.01-0.29,5.4-0.86c1.39-0.57,2.25-1.42,2.6-2.52c0.29-0.96,0.01-1.75-0.86-2.36s-2.33-0.92-4.38-0.92
			h-8.68l-1.48,6.66H149.69z M145.53,180.14h8.76c3.17,0,5.35,0.51,6.54,1.54c1.19,1.03,1.57,2.32,1.14,3.87
			c-0.48,1.55-1.95,2.73-4.4,3.54c-2.45,0.8-5.49,1.21-9.12,1.21h-5.56L145.53,180.14z M151.85,188.74c1.89,0,3.41-0.27,4.56-0.82
			c1.15-0.54,1.88-1.32,2.2-2.32c0.35-1.05,0.09-1.87-0.76-2.44s-2.23-0.86-4.12-0.86h-7.76l-0.88,6.44H151.85z"/>
		<path class="st6" d="M174.33,180.14h3.28l-3.88,17.01h14.56l-0.52,2.28h-17.84L174.33,180.14z"/>
		<path class="st6" d="M202.05,198.64c-1.92-0.87-3.28-2.05-4.08-3.55s-0.96-3.17-0.48-5.02c0.45-1.78,1.46-3.42,3.02-4.94
			c1.56-1.52,3.53-2.73,5.9-3.63c2.37-0.91,4.93-1.36,7.68-1.36c2.69,0,4.99,0.43,6.88,1.28c1.89,0.85,3.24,2.03,4.04,3.54
			c0.8,1.51,0.97,3.21,0.52,5.12c-0.45,1.79-1.48,3.45-3.08,4.95c-1.6,1.51-3.58,2.71-5.94,3.59s-4.87,1.33-7.54,1.33
			C206.28,199.95,203.97,199.51,202.05,198.64z M215.33,196.73c1.76-0.7,3.21-1.65,4.34-2.83c1.13-1.18,1.89-2.46,2.26-3.83
			c0.37-1.46,0.29-2.78-0.24-3.95c-0.53-1.17-1.51-2.1-2.94-2.79c-1.43-0.68-3.22-1.03-5.38-1.03c-2,0-3.88,0.37-5.64,1.1
			c-1.76,0.73-3.23,1.69-4.4,2.89c-1.17,1.19-1.93,2.46-2.28,3.79c-0.43,1.52-0.37,2.86,0.18,4.02c0.55,1.17,1.53,2.07,2.96,2.72
			c1.43,0.65,3.19,0.97,5.3,0.97C211.63,197.78,213.57,197.43,215.33,196.73z"/>
	</g>
</g>
</svg>
