<?xml version="1.0" encoding="utf-8"?>
<!-- Generator: Adobe Illustrator 24.3.0, SVG Export Plug-In . SVG Version: 6.00 Build 0)  -->
<svg version="1.1" id="Capa_1" xmlns="http://www.w3.org/2000/svg" xmlns:xlink="http://www.w3.org/1999/xlink" x="0px" y="0px"
	 viewBox="0 0 300 300" style="enable-background:new 0 0 300 300;" xml:space="preserve">
<style type="text/css">
	.st0{fill:#FFFFFF;}
	.st1{fill:#E20613;}
	.st2{fill:#E10A19;}
	.st3{fill:none;stroke:#000000;stroke-miterlimit:10;}
	.st4{fill:#C60C1E;}
	.st5{fill:#0D0D0D;}
	.st6{fill:#FFFFFF;stroke:#FFFFFF;stroke-miterlimit:10;}
</style>
<g>
	<g>
		<path class="st0" d="M48.08,132.6l-26.69,28.13h8.22l6.29-6.52h12.76l-0.12,6.52h7.85l2.48-28.13H48.08z M49.54,148.78h-9.07
			l9.89-10.52L49.54,148.78z"/>
		<path class="st0" d="M84.37,139.05l-7.92,16.11h-5.5c-0.64,0-1.17-0.06-1.58-0.18c-0.42-0.12-0.49-0.45-0.22-1l7.34-14.94h-7.03
			l-9.04,18.39c-0.17,0.34-0.24,0.69-0.23,1.07s0.1,0.74,0.26,1.07c0.16,0.34,0.39,0.61,0.68,0.82c0.29,0.21,0.62,0.32,0.99,0.32
			h19.01l10.65-21.68H84.37z"/>
		<path class="st0" d="M104.83,144.04h7.14l2.45-4.99h-7.1l2.94-5.99h-7.03l-2.94,5.99h-5.36l-2.45,4.99h5.2l-4.76,9.7
			c-1.04,2.12-1.31,3.78-0.83,5.01s1.77,1.96,3.83,2.2c0.78,0.07,1.57,0.1,2.37,0.1c0.94,0,1.86-0.04,2.76-0.1
			c0.9-0.07,1.82-0.16,2.73-0.25l2.43-4.95c-0.2,0-0.36,0.01-0.49,0.01c-0.13,0.01-0.26,0.03-0.4,0.06
			c-0.45,0.05-0.94,0.1-1.49,0.15c-0.54,0.04-1.06,0.07-1.56,0.07c-0.54,0-1.05-0.04-1.5-0.12c-0.46-0.09-0.73-0.26-0.83-0.52
			c-0.25-0.45,0.02-1.47,0.8-3.06L104.83,144.04z"/>
		<path class="st0" d="M139.38,141.4c-0.11-0.52-0.37-0.94-0.78-1.25c-0.41-0.31-0.9-0.54-1.48-0.7c-0.59-0.15-1.23-0.25-1.94-0.3
			c-0.71-0.05-1.42-0.07-2.14-0.07h-6.73c-0.75,0-1.5,0.02-2.27,0.07c-0.76,0.05-1.52,0.15-2.27,0.3c-0.75,0.16-1.47,0.39-2.18,0.7
			c-0.71,0.31-1.38,0.73-2.01,1.25c-0.54,0.45-0.98,0.9-1.3,1.35c-0.32,0.45-0.6,0.92-0.83,1.39l-5.68,11.55
			c-0.23,0.48-0.41,0.94-0.53,1.39c-0.12,0.45-0.13,0.89-0.02,1.32c0.12,0.52,0.38,0.94,0.78,1.25c0.4,0.31,0.9,0.54,1.5,0.7
			c0.59,0.15,1.25,0.25,1.98,0.3c0.72,0.05,1.45,0.07,2.2,0.07h6.73c0.72,0,1.45-0.02,2.2-0.06c0.75-0.04,1.5-0.13,2.25-0.31
			c0.75-0.17,1.49-0.4,2.2-0.69c0.72-0.3,1.39-0.72,2.04-1.27c0.54-0.45,0.97-0.9,1.27-1.34c0.3-0.44,0.57-0.91,0.82-1.41
			l5.66-11.51c0.23-0.48,0.41-0.94,0.53-1.38C139.5,142.34,139.5,141.88,139.38,141.4z M130.47,146.6l-3.22,6.56
			c-0.17,0.33-0.31,0.58-0.43,0.75c-0.12,0.17-0.29,0.34-0.52,0.5c-0.4,0.26-0.82,0.46-1.24,0.59c-0.42,0.13-0.85,0.23-1.28,0.31
			c-0.43,0.07-0.86,0.11-1.27,0.12c-0.42,0.01-0.81,0.02-1.18,0.02c-0.35,0-0.71-0.01-1.09-0.02c-0.38-0.01-0.75-0.06-1.11-0.12
			c-0.36-0.07-0.69-0.18-0.98-0.31c-0.29-0.13-0.51-0.32-0.66-0.59c-0.09-0.17-0.11-0.34-0.06-0.5c0.06-0.17,0.17-0.42,0.34-0.75
			l3.22-6.56c0.27-0.54,0.54-0.98,0.81-1.32c0.28-0.33,0.64-0.58,1.09-0.75c0.64-0.19,1.32-0.35,2.04-0.48
			c0.72-0.13,1.41-0.2,2.09-0.2c0.72,0,1.39,0.07,2.01,0.2c0.62,0.13,1.14,0.29,1.57,0.48c0.27,0.17,0.38,0.42,0.34,0.75
			C130.89,145.62,130.74,146.06,130.47,146.6z"/>
		<path class="st0" d="M146.82,150.95l5.09-10.37c0.23-0.4,0.52-0.73,0.89-0.98c0.37-0.25,0.78-0.44,1.21-0.57
			c0.43-0.13,0.89-0.21,1.37-0.25c0.48-0.03,0.95-0.05,1.42-0.05l11.81,0.04l3.03-6.17c-1.76,0-3.5-0.01-5.23-0.02
			c-1.73-0.01-3.45-0.02-5.16-0.02h-2.59c-0.86,0-1.71,0.01-2.56,0.04c-0.78,0.02-1.66,0.17-2.61,0.45
			c-0.96,0.28-1.9,0.65-2.81,1.13c-0.92,0.47-1.77,1.04-2.56,1.69c-0.78,0.65-1.38,1.38-1.79,2.16l-8.57,17.43
			c-0.25,0.76-0.3,1.47-0.17,2.12c0.14,0.65,0.43,1.21,0.86,1.68s0.98,0.83,1.63,1.09c0.66,0.26,1.36,0.39,2.11,0.39h15.62
			l3.12-6.35h-13.76c-0.4,0-0.67-0.1-0.84-0.31c-0.16-0.2-0.24-0.46-0.24-0.78c-0.01-0.32,0.06-0.68,0.2-1.09
			C146.43,151.8,146.6,151.38,146.82,150.95z"/>
		<path class="st0" d="M176.72,131.28l-10.28,22.04l-2.25,4.82c0.04,0.15,0.1,0.3,0.18,0.44h5.89l1.16-3.06l9.23-24.25H176.72z"/>
		<path class="st0" d="M202.39,139.59c-0.3-0.36-0.82-0.54-1.56-0.54h-15.7l-2.45,4.99h10.11c0.32,0,0.64,0.01,0.94,0.02
			c0.31,0.01,0.56,0.04,0.77,0.09c0.21,0.05,0.36,0.13,0.45,0.27c0.09,0.13,0.07,0.3-0.03,0.51l-0.86,1.75
			c-1.45-0.02-2.83-0.04-4.13-0.04h-4.15c-0.69,0-1.38,0.08-2.05,0.23c-0.67,0.15-1.3,0.38-1.9,0.68c-0.59,0.29-1.14,0.68-1.64,1.16
			c-0.51,0.48-0.93,1.03-1.27,1.68c-0.29,0.55-0.59,1.14-0.9,1.77c-0.31,0.63-0.61,1.25-0.92,1.87c-0.57,1.16-1.03,2.16-1.37,3.01
			c-0.34,0.84-0.48,1.54-0.41,2.09c0.07,0.55,0.37,0.95,0.93,1.22c0.55,0.26,1.45,0.39,2.69,0.39h14.76
			c1.17-2.38,2.16-4.4,2.98-6.06c0.81-1.66,1.5-3.05,2.05-4.15c0.56-1.11,1-1.99,1.32-2.64c0.32-0.65,0.57-1.18,0.78-1.58l0.63-1.28
			c0.34-0.69,0.64-1.39,0.9-2.1c0.26-0.72,0.4-1.36,0.43-1.93C202.83,140.4,202.69,139.94,202.39,139.59z M189.67,155.76
			c-0.15,0-0.38,0.01-0.7,0.02c-0.31,0.01-0.71,0.02-1.18,0.02c-0.73,0.02-1.47,0.04-2.23,0.04h-1.88c-0.57,0-0.85-0.15-0.85-0.46
			c0.01-0.31,0.07-0.59,0.2-0.86l0.64-1.31c0.27-0.55,0.56-0.95,0.85-1.2c0.3-0.24,0.7-0.37,1.22-0.37h5.96L189.67,155.76z"/>
		<path class="st0" d="M212.51,145.25c0.18-0.39,0.38-0.68,0.59-0.89c0.2-0.21,0.51-0.32,0.9-0.32h13.68l2.45-4.99h-14.12
			c-0.72,0-1.49,0.03-2.29,0.09c-0.81,0.06-1.61,0.2-2.38,0.41c-0.78,0.21-1.5,0.53-2.16,0.96c-0.67,0.43-1.24,1.02-1.7,1.75
			l-3.08,6.27c-0.24,0.48-0.35,0.94-0.36,1.37c-0.01,0.44,0.1,0.83,0.31,1.16c0.21,0.33,0.51,0.6,0.9,0.8
			c0.4,0.2,0.88,0.31,1.46,0.31h7.96c0.62,0,0.99,0.15,1.11,0.46c0.12,0.31,0.08,0.67-0.12,1.07c-0.48,0.98-1.35,1.46-2.62,1.46
			h-11.9l-2.73,5.56h13.26c1.22,0,2.36-0.09,3.42-0.25c1.06-0.17,2.03-0.41,2.9-0.73c0.86-0.32,1.61-0.73,2.24-1.23
			c0.63-0.5,1.12-1.09,1.46-1.78l2.45-4.99c0.13-0.26,0.27-0.56,0.42-0.89c0.15-0.34,0.26-0.63,0.34-0.89
			c0.2-0.67,0.21-1.19,0.04-1.58c-0.18-0.39-0.48-0.7-0.9-0.91c-0.42-0.21-0.9-0.35-1.47-0.41c-0.57-0.06-1.13-0.09-1.67-0.09h-7.16
			c-0.48,0-0.84-0.02-1.08-0.07c-0.25-0.05-0.42-0.13-0.49-0.27c-0.07-0.13-0.07-0.3-0.01-0.51
			C212.21,145.9,212.34,145.61,212.51,145.25z"/>
		<path class="st0" d="M254.62,140.74c-0.08-0.42-0.28-0.75-0.6-1.02c-0.32-0.26-0.73-0.45-1.22-0.55c-0.5-0.11-1-0.17-1.53-0.17
			h-11.62c-1.09,0-2.01,0.13-2.75,0.38c-0.75,0.24-1.36,0.54-1.83,0.89c-0.48,0.35-0.84,0.68-1.07,1c-0.23,0.32-0.39,0.55-0.45,0.69
			l-7.59,15.44c-0.31,0.83-0.29,1.47,0.07,1.91c0.35,0.43,0.86,0.76,1.52,0.98c0.65,0.21,1.39,0.34,2.2,0.37
			c0.8,0.04,1.52,0.06,2.13,0.06h12.8l2.73-5.56H235.5c-0.35,0-0.59-0.08-0.73-0.25c-0.14-0.17-0.22-0.38-0.24-0.64
			c-0.02-0.26,0.01-0.55,0.1-0.86c0.09-0.31,0.2-0.61,0.34-0.89h14.28l5.01-10.19C254.58,141.69,254.7,141.16,254.62,140.74z
			 M245.94,145.36l-0.62,1.25c-0.26,0.55-0.55,0.95-0.84,1.19c-0.29,0.25-0.7,0.38-1.22,0.38h-5.93l2.04-4.14h5.92
			c0.57,0,0.85,0.16,0.84,0.46C246.13,144.81,246.06,145.09,245.94,145.36z"/>
		<path class="st0" d="M263.77,145.25c0.18-0.39,0.38-0.68,0.59-0.89c0.2-0.21,0.51-0.32,0.9-0.32h13.68l2.45-4.99h-14.12
			c-0.72,0-1.49,0.03-2.3,0.09c-0.81,0.06-1.61,0.2-2.38,0.41c-0.78,0.21-1.5,0.53-2.16,0.96c-0.67,0.43-1.24,1.02-1.7,1.75
			l-3.08,6.27c-0.24,0.48-0.35,0.94-0.36,1.37c-0.01,0.44,0.1,0.83,0.31,1.16c0.21,0.33,0.51,0.6,0.91,0.8
			c0.39,0.2,0.87,0.31,1.45,0.31h7.96c0.62,0,0.99,0.15,1.11,0.46c0.12,0.31,0.08,0.67-0.12,1.07c-0.48,0.98-1.35,1.46-2.62,1.46
			h-11.9l-2.73,5.56h13.26c1.22,0,2.36-0.09,3.42-0.25c1.06-0.17,2.03-0.41,2.9-0.73c0.86-0.32,1.61-0.73,2.24-1.23
			c0.63-0.5,1.12-1.09,1.46-1.78l2.45-4.99c0.13-0.26,0.27-0.56,0.42-0.89c0.15-0.34,0.26-0.63,0.34-0.89
			c0.2-0.67,0.21-1.19,0.04-1.58c-0.18-0.39-0.48-0.7-0.9-0.91c-0.42-0.21-0.9-0.35-1.47-0.41s-1.13-0.09-1.67-0.09h-7.16
			c-0.48,0-0.84-0.02-1.08-0.07c-0.25-0.05-0.42-0.13-0.49-0.27c-0.07-0.13-0.07-0.3-0.01-0.51
			C263.47,145.9,263.59,145.61,263.77,145.25z"/>
	</g>
	<polygon class="st0" points="153.05,95.44 184.45,94.21 179.47,101.22 149.46,101.5 	"/>
	<polygon class="st0" points="73.16,111.33 87.52,107.17 88.42,109.54 74.59,112.52 	"/>
	<path class="st0" d="M91.95,106.23c0,0,23.08-5.38,23.54-5.32l1.59,3.65l-24.13,4.29L91.95,106.23z"/>
	<path class="st0" d="M119.03,99.91c0,0,29.09-4.22,30.24-4.07l-2.27,5.73c0,0-26.82,2.81-26.95,2.94
		C119.93,104.63,119.03,99.91,119.03,99.91z"/>
	<path class="st0" d="M184.53,102.2l7.48-8.05c0,0,23.67,1.71,27.79,5.04l-12.1,6.96C207.71,106.14,189.5,102.46,184.53,102.2z"/>
	<path class="st0" d="M229.42,100.72c0,0,29.97,8.81,42.58,31.82l-34.13-8.51c0,0-4.47-8.03-23.46-16.49L229.42,100.72z"/>
	<path class="st0" d="M198.03,85.6l-3.34,8.77l-3.33,8.73l-7.03,18.47l-3.69,9.7l-9.23,24.25l-1.16,3.06h-5.89
		c-0.07-0.14-0.13-0.29-0.18-0.44l2.25-4.82l10.28-22.04l1.7-3.64l11.54-24.75l4.01-8.57L198.03,85.6z"/>
	<path class="st0" d="M171.68,156.91c0,1.65-1.05,3.06-2.51,3.6c-0.42,0.16-0.87,0.24-1.34,0.24c-1.52,0-2.84-0.89-3.46-2.17
		c-0.07-0.14-0.13-0.29-0.18-0.44c-0.13-0.39-0.21-0.8-0.21-1.24c0-1.64,1.02-3.03,2.46-3.59c0.43-0.17,0.9-0.26,1.39-0.26
		c1.64,0,3.05,1.03,3.59,2.47c0.1,0.26,0.18,0.53,0.21,0.81C171.67,156.52,171.68,156.71,171.68,156.91z"/>
	<g>
		<g>
			<path class="st0" d="M22.22,173h19.92c10.98,0,19.96,4.65,19.96,10.35c0,5.68-8.98,10.32-19.96,10.32h-8.52v9.96H22.22V173z
				 M50.7,183.3c0-2.32-3.84-4.2-8.55-4.2h-8.52v8.47l8.52,0.02C46.86,187.61,50.7,185.68,50.7,183.3z"/>
			<path class="st0" d="M97.46,199.35H74.75l-3.63,4.27H58.81l27.11-31.38h0.35l27.14,31.38h-12.36L97.46,199.35z M93.02,194.11
				l-6.9-8.19l-6.94,8.19H93.02z"/>
			<path class="st0" d="M163.26,194.34c0,4.52-6.02,9.29-17.71,9.29h-21.44V173h15.49c10.07,0,16.47,3.99,16.47,8.11
				c0,3.25-3.98,5.26-5.35,5.26C156.19,186.38,163.26,189.42,163.26,194.34z M135.49,178.99v5.98h4.61c2.71,0,5.35-1.25,5.35-3.04
				c0-1.73-2.5-2.94-5.14-2.94H135.49z M152.14,193.9c0-1.77-2.25-3.53-7.67-3.53h-8.98v7.26h9.01
				C148.2,197.62,152.14,196.26,152.14,193.9z"/>
			<path class="st0" d="M208.93,197.51v6.12h-34.22V173h11.41v24.51H208.93z"/>
			<path class="st0" d="M216.16,188.35c0-8.79,13.27-15.98,29.5-15.98c16.23,0,29.53,7.18,29.53,15.98
				c0,8.72-13.31,15.86-29.57,15.86C229.44,204.22,216.16,197.07,216.16,188.35z M263.65,188.32c0-5.36-8.1-9.73-18.02-9.73
				c-9.89,0-17.95,4.37-17.95,9.73c0,5.32,8.06,9.67,17.95,9.67C255.56,197.99,263.65,193.63,263.65,188.32z"/>
		</g>
	</g>
</g>
</svg>
