<?xml version="1.0" encoding="utf-8"?>
<!-- Generator: Adobe Illustrator 24.3.0, SVG Export Plug-In . SVG Version: 6.00 Build 0)  -->
<svg version="1.1" id="Capa_1" xmlns="http://www.w3.org/2000/svg" xmlns:xlink="http://www.w3.org/1999/xlink" x="0px" y="0px"
	 viewBox="0 0 300 300" style="enable-background:new 0 0 300 300;" xml:space="preserve">
<style type="text/css">
	.st0{fill:#FFFFFF;}
	.st1{fill:none;stroke:#000000;stroke-miterlimit:10;}
	.st2{fill:#C60C1E;}
	.st3{fill:#0D0D0D;}
	.st4{fill:#FFFFFF;stroke:#FFFFFF;stroke-miterlimit:10;}
	.st5{fill:#E20613;}
	.st6{fill:#E10A19;}
</style>
<g>
	<g>
		<path class="st5" d="M44.54,148.99L17.29,177.7h8.39l6.43-6.66h13.02l-0.12,6.66h8.01l2.53-28.71H44.54z M46.03,165.51h-9.26
			l10.1-10.73L46.03,165.51z"/>
		<path class="st5" d="M81.59,155.58l-8.08,16.45h-5.62c-0.66,0-1.2-0.06-1.62-0.18c-0.42-0.12-0.49-0.46-0.22-1.02l7.49-15.25
			h-7.18l-9.23,18.77c-0.16,0.34-0.24,0.71-0.23,1.09c0.01,0.39,0.1,0.75,0.26,1.09c0.16,0.34,0.39,0.62,0.69,0.84
			c0.3,0.22,0.63,0.33,1.02,0.33h19.4l10.87-22.12H81.59z"/>
		<path class="st5" d="M102.47,160.67h7.29l2.5-5.09h-7.25l3.01-6.12h-7.18l-3.01,6.12h-5.47l-2.51,5.09h5.32l-4.86,9.9
			c-1.06,2.16-1.34,3.86-0.84,5.11c0.5,1.25,1.8,2,3.91,2.24c0.8,0.07,1.6,0.11,2.41,0.11c0.96,0,1.9-0.04,2.82-0.11
			c0.92-0.07,1.85-0.16,2.78-0.25l2.49-5.06c-0.2,0-0.37,0.01-0.5,0.02c-0.13,0.01-0.27,0.03-0.41,0.05
			c-0.46,0.05-0.96,0.1-1.51,0.15c-0.55,0.05-1.09,0.07-1.59,0.07c-0.56,0-1.07-0.04-1.53-0.13s-0.75-0.26-0.84-0.53
			c-0.25-0.46,0.02-1.5,0.82-3.13L102.47,160.67z"/>
		<path class="st5" d="M137.74,157.98c-0.12-0.53-0.38-0.96-0.8-1.27c-0.42-0.32-0.92-0.55-1.51-0.71
			c-0.59-0.16-1.25-0.26-1.98-0.31c-0.72-0.05-1.45-0.07-2.18-0.07h-6.87c-0.76,0-1.53,0.03-2.32,0.07
			c-0.78,0.05-1.56,0.15-2.32,0.31c-0.76,0.16-1.5,0.39-2.23,0.71c-0.73,0.32-1.41,0.74-2.05,1.27c-0.55,0.46-1,0.92-1.32,1.38
			c-0.33,0.46-0.61,0.94-0.85,1.42l-5.79,11.79c-0.24,0.49-0.42,0.96-0.55,1.42c-0.13,0.46-0.13,0.91-0.02,1.35
			c0.12,0.53,0.38,0.96,0.8,1.27c0.42,0.31,0.93,0.55,1.53,0.71c0.61,0.16,1.27,0.26,2.01,0.31c0.74,0.05,1.48,0.07,2.24,0.07h6.87
			c0.73,0,1.48-0.02,2.25-0.05c0.77-0.04,1.53-0.14,2.3-0.31c0.77-0.17,1.52-0.4,2.25-0.71c0.73-0.3,1.42-0.73,2.08-1.29
			c0.55-0.46,0.99-0.92,1.3-1.37c0.31-0.45,0.59-0.93,0.84-1.44l5.78-11.76c0.24-0.48,0.42-0.95,0.54-1.4
			C137.86,158.93,137.86,158.47,137.74,157.98z M129.11,161.94c-0.04,0.34-0.2,0.79-0.47,1.35l-3.29,6.7
			c-0.16,0.34-0.31,0.59-0.43,0.77c-0.12,0.17-0.3,0.34-0.53,0.51c-0.41,0.27-0.83,0.47-1.26,0.6c-0.43,0.13-0.87,0.24-1.31,0.31
			c-0.44,0.07-0.87,0.11-1.29,0.13c-0.42,0.01-0.83,0.02-1.21,0.02c-0.36,0-0.73-0.01-1.11-0.02c-0.39-0.01-0.77-0.05-1.13-0.13
			c-0.37-0.07-0.71-0.18-1.01-0.31c-0.3-0.13-0.53-0.33-0.67-0.6c-0.09-0.17-0.11-0.34-0.05-0.51c0.06-0.17,0.17-0.42,0.34-0.77
			l3.29-6.7c0.28-0.56,0.55-1.01,0.83-1.35c0.28-0.34,0.65-0.59,1.11-0.76c0.65-0.19,1.35-0.36,2.08-0.49
			c0.74-0.13,1.44-0.2,2.13-0.2c0.73,0,1.41,0.07,2.04,0.2c0.63,0.13,1.17,0.3,1.6,0.49C129.03,161.35,129.15,161.61,129.11,161.94z
			"/>
		<path d="M145.33,167.73l5.2-10.59c0.23-0.41,0.53-0.75,0.91-1c0.38-0.26,0.79-0.45,1.23-0.58c0.45-0.13,0.91-0.22,1.4-0.25
			c0.49-0.04,0.97-0.06,1.45-0.06l12.06,0.04l3.09-6.29c-1.8,0-3.58-0.01-5.34-0.02c-1.77-0.01-3.52-0.02-5.27-0.02h-2.64
			c-0.87,0-1.75,0.01-2.62,0.04c-0.8,0.02-1.69,0.18-2.67,0.46c-0.98,0.28-1.93,0.66-2.87,1.15c-0.94,0.48-1.81,1.06-2.61,1.73
			c-0.8,0.67-1.41,1.4-1.83,2.2l-8.75,17.8c-0.25,0.78-0.31,1.5-0.16,2.16c0.14,0.67,0.44,1.24,0.88,1.71
			c0.44,0.47,1,0.84,1.67,1.11c0.67,0.27,1.39,0.4,2.15,0.4h15.95l3.18-6.48H145.7c-0.41,0-0.69-0.1-0.86-0.31
			c-0.16-0.2-0.25-0.47-0.25-0.8c-0.01-0.33,0.06-0.7,0.2-1.11C144.93,168.59,145.11,168.17,145.33,167.73z"/>
		<path d="M175.86,147.64l-10.49,22.49l-2.3,4.93c0.05,0.16,0.11,0.3,0.18,0.45h6.01l1.19-3.13l9.41-24.73H175.86z"/>
		<path d="M202.06,156.12c-0.3-0.36-0.83-0.54-1.59-0.54h-16.02l-2.5,5.09h10.33c0.33,0,0.65,0.01,0.96,0.02
			c0.31,0.01,0.57,0.04,0.79,0.09c0.22,0.05,0.37,0.14,0.46,0.27c0.09,0.13,0.08,0.31-0.03,0.53l-0.88,1.78
			c-1.48-0.03-2.89-0.04-4.22-0.04h-4.24c-0.71,0-1.41,0.08-2.09,0.24c-0.69,0.16-1.33,0.39-1.93,0.69c-0.61,0.3-1.17,0.7-1.68,1.18
			c-0.52,0.49-0.95,1.06-1.3,1.71c-0.3,0.56-0.61,1.16-0.92,1.8c-0.32,0.65-0.63,1.28-0.94,1.91c-0.58,1.19-1.05,2.21-1.4,3.07
			c-0.35,0.86-0.49,1.57-0.42,2.13c0.07,0.56,0.38,0.97,0.95,1.24c0.56,0.27,1.48,0.4,2.74,0.4h15.07c1.19-2.42,2.21-4.49,3.04-6.19
			c0.83-1.7,1.54-3.11,2.1-4.24c0.57-1.13,1.02-2.03,1.34-2.69c0.33-0.67,0.59-1.21,0.8-1.62l0.64-1.31
			c0.35-0.7,0.65-1.42,0.92-2.15c0.27-0.73,0.41-1.38,0.43-1.97C202.51,156.96,202.36,156.49,202.06,156.12z M189.08,172.64
			c-0.15,0-0.39,0.01-0.71,0.02c-0.32,0.01-0.73,0.02-1.21,0.02c-0.75,0.02-1.5,0.04-2.28,0.04h-1.92c-0.58,0-0.87-0.16-0.87-0.47
			c0-0.31,0.07-0.61,0.2-0.87l0.66-1.35c0.27-0.56,0.56-0.96,0.86-1.22c0.3-0.25,0.72-0.38,1.25-0.38h6.08L189.08,172.64z"/>
		<path d="M212.39,161.91c0.19-0.39,0.39-0.69,0.6-0.91c0.21-0.22,0.51-0.33,0.92-0.33h13.97l2.51-5.09h-14.42
			c-0.74,0-1.52,0.03-2.35,0.09c-0.83,0.06-1.64,0.2-2.43,0.42c-0.79,0.22-1.53,0.55-2.22,0.98c-0.68,0.44-1.26,1.03-1.73,1.78
			l-3.15,6.41c-0.24,0.49-0.36,0.95-0.37,1.4c-0.01,0.45,0.1,0.84,0.31,1.18c0.21,0.34,0.52,0.61,0.93,0.82
			c0.4,0.21,0.9,0.31,1.48,0.31h8.12c0.63,0,1.01,0.16,1.13,0.47c0.13,0.32,0.09,0.68-0.12,1.09c-0.49,1-1.38,1.49-2.67,1.49h-12.15
			l-2.79,5.67h13.54c1.24,0,2.41-0.08,3.49-0.25c1.09-0.17,2.07-0.42,2.95-0.75c0.88-0.33,1.65-0.75,2.29-1.25
			c0.64-0.51,1.14-1.11,1.48-1.82l2.5-5.09c0.13-0.26,0.27-0.57,0.43-0.91c0.15-0.34,0.27-0.64,0.35-0.91
			c0.21-0.68,0.22-1.22,0.03-1.62c-0.18-0.4-0.49-0.71-0.91-0.93c-0.43-0.22-0.93-0.36-1.51-0.42c-0.58-0.06-1.15-0.09-1.71-0.09
			h-7.31c-0.48,0-0.85-0.03-1.11-0.07c-0.26-0.05-0.42-0.14-0.49-0.27c-0.07-0.13-0.08-0.31-0.01-0.53
			C212.09,162.56,212.21,162.27,212.39,161.91z"/>
		<path d="M255.38,157.31c-0.09-0.42-0.29-0.77-0.61-1.04c-0.33-0.27-0.74-0.46-1.25-0.57c-0.5-0.11-1.02-0.16-1.56-0.16H240.1
			c-1.12,0-2.05,0.13-2.81,0.38c-0.76,0.26-1.39,0.56-1.87,0.91c-0.49,0.35-0.85,0.69-1.09,1.02c-0.24,0.33-0.39,0.56-0.46,0.71
			l-7.74,15.76c-0.32,0.85-0.29,1.5,0.07,1.95c0.36,0.45,0.88,0.78,1.55,1c0.67,0.22,1.42,0.34,2.24,0.38
			c0.82,0.04,1.55,0.05,2.18,0.05h13.06l2.79-5.67h-12.15c-0.36,0-0.6-0.09-0.75-0.26c-0.15-0.17-0.23-0.39-0.25-0.65
			c-0.02-0.27,0.01-0.56,0.11-0.87c0.09-0.32,0.21-0.62,0.35-0.91h14.58l5.12-10.41C255.34,158.27,255.46,157.73,255.38,157.31z
			 M246.51,162.02l-0.63,1.27c-0.28,0.56-0.56,0.96-0.86,1.22c-0.3,0.25-0.72,0.38-1.25,0.38h-6.04l2.08-4.22h6.04
			c0.58,0,0.86,0.16,0.86,0.47S246.64,161.75,246.51,162.02z"/>
		<path d="M264.71,161.91c0.19-0.39,0.39-0.69,0.6-0.91c0.21-0.22,0.52-0.33,0.92-0.33h13.97l2.5-5.09H268.3
			c-0.74,0-1.52,0.03-2.35,0.09c-0.83,0.06-1.64,0.2-2.43,0.42c-0.79,0.22-1.53,0.55-2.21,0.98c-0.69,0.44-1.26,1.03-1.73,1.78
			l-3.15,6.41c-0.24,0.49-0.36,0.95-0.36,1.4c-0.01,0.45,0.1,0.84,0.31,1.18c0.21,0.34,0.52,0.61,0.93,0.82
			c0.4,0.21,0.9,0.31,1.48,0.31h8.13c0.63,0,1.01,0.16,1.13,0.47c0.12,0.32,0.08,0.68-0.12,1.09c-0.49,1-1.38,1.49-2.67,1.49H253.1
			l-2.79,5.67h13.54c1.24,0,2.41-0.08,3.49-0.25c1.08-0.17,2.07-0.42,2.95-0.75c0.88-0.33,1.65-0.75,2.29-1.25
			c0.65-0.51,1.14-1.11,1.48-1.82l2.51-5.09c0.13-0.26,0.27-0.57,0.43-0.91c0.15-0.34,0.27-0.64,0.35-0.91
			c0.21-0.68,0.22-1.22,0.03-1.62s-0.49-0.71-0.91-0.93c-0.43-0.22-0.93-0.36-1.51-0.42c-0.58-0.06-1.15-0.09-1.71-0.09h-7.31
			c-0.48,0-0.85-0.03-1.11-0.07c-0.26-0.05-0.42-0.14-0.49-0.27c-0.07-0.13-0.07-0.31-0.01-0.53S264.54,162.27,264.71,161.91z"/>
	</g>
	<polygon points="151.7,111.05 183.76,109.8 178.67,116.95 148.03,117.24 	"/>
	<polygon points="70.14,127.27 84.8,123.02 85.72,125.44 71.61,128.49 	"/>
	<path d="M89.33,122.06c0,0,23.56-5.49,24.03-5.43l1.63,3.73l-24.64,4.38L89.33,122.06z"/>
	<path d="M116.97,115.61c0,0,29.7-4.31,30.87-4.15l-2.32,5.84c0,0-27.38,2.87-27.51,3C117.89,120.43,116.97,115.61,116.97,115.61z"
		/>
	<path class="st6" d="M183.83,117.94l7.64-8.22c0,0,24.16,1.75,28.37,5.14l-12.35,7.1C207.49,121.97,188.91,118.21,183.83,117.94z"
		/>
	<path class="st6" d="M229.66,116.44c0,0,30.59,9,43.46,32.48l-34.84-8.68c0,0-4.57-8.19-23.95-16.83L229.66,116.44z"/>
	<path d="M170.72,173.79c0,2.17-1.76,3.93-3.93,3.93c-1.56,0-2.9-0.9-3.54-2.22c-0.07-0.15-0.13-0.29-0.18-0.45
		c-0.14-0.4-0.21-0.82-0.21-1.27c0-1.67,1.04-3.09,2.51-3.66c0.44-0.17,0.92-0.27,1.42-0.27c1.67,0,3.1,1.04,3.67,2.51
		C170.62,172.81,170.72,173.29,170.72,173.79z"/>
	<rect x="17.31" y="185.81" width="255.84" height="12.64"/>
	<rect x="17.31" y="185.81" class="st0" width="6.6" height="6.32"/>
	<rect x="23.91" y="192.13" class="st0" width="6.6" height="6.32"/>
	<rect x="37.1" y="192.13" class="st0" width="6.6" height="6.32"/>
	<rect x="30.5" y="185.81" class="st0" width="6.6" height="6.32"/>
	<rect x="43.69" y="185.81" class="st0" width="6.6" height="6.32"/>
	<rect x="240.17" y="185.81" class="st0" width="6.6" height="6.32"/>
	<rect x="246.77" y="192.13" class="st0" width="6.6" height="6.32"/>
	<rect x="253.36" y="185.81" class="st0" width="6.6" height="6.32"/>
	<rect x="259.96" y="192.13" class="st0" width="6.6" height="6.87"/>
	<rect x="266.55" y="185.81" class="st0" width="6.6" height="6.32"/>
	<g>
		<path class="st0" d="M60.88,195.41c-0.46-0.32-0.78-0.76-0.97-1.32c-0.19-0.56-0.23-1.17-0.1-1.84c0.11-0.67,0.36-1.28,0.75-1.84
			c0.39-0.56,0.87-1,1.45-1.33c0.58-0.33,1.19-0.49,1.83-0.49c0.63,0,1.15,0.15,1.57,0.44c0.42,0.29,0.71,0.66,0.88,1.12
			c0.17,0.45,0.21,0.91,0.12,1.37h-0.86c0.05-0.4,0.01-0.77-0.12-1.09c-0.13-0.32-0.34-0.57-0.64-0.76
			c-0.3-0.18-0.68-0.28-1.13-0.28c-0.49,0-0.94,0.13-1.35,0.4s-0.76,0.62-1.04,1.06c-0.28,0.44-0.46,0.91-0.56,1.4
			c-0.11,0.57-0.1,1.07,0.02,1.5c0.12,0.43,0.35,0.77,0.69,1s0.75,0.36,1.26,0.36c0.39,0,0.76-0.09,1.11-0.26
			c0.35-0.17,0.65-0.42,0.91-0.73c0.25-0.31,0.43-0.66,0.54-1.06h0.92c-0.11,0.45-0.33,0.9-0.65,1.33c-0.32,0.44-0.74,0.8-1.25,1.09
			c-0.51,0.29-1.08,0.43-1.72,0.43C61.89,195.9,61.34,195.73,60.88,195.41z"/>
		<path class="st0" d="M68.02,188.58h0.84l-0.99,6.28h3.73l-0.13,0.84H66.9L68.02,188.58z"/>
		<path class="st0" d="M75.77,188.58h1.1l1.52,7.12h-0.96l-0.32-1.55h-3.37l-0.8,1.55h-0.99L75.77,188.58z M76.93,193.31l-0.76-3.83
			l-2.01,3.83H76.93z"/>
		<path class="st0" d="M80.48,195.59c-0.43-0.2-0.74-0.48-0.94-0.83s-0.28-0.75-0.23-1.2h0.82c0.01,0.48,0.19,0.86,0.52,1.14
			c0.33,0.28,0.83,0.42,1.48,0.42c0.68,0,1.24-0.12,1.67-0.37c0.43-0.25,0.68-0.57,0.74-0.98c0.06-0.35-0.07-0.63-0.38-0.83
			c-0.32-0.19-0.87-0.32-1.67-0.37c-0.88-0.07-1.52-0.27-1.91-0.6c-0.39-0.33-0.54-0.79-0.45-1.36c0.07-0.36,0.24-0.7,0.52-1.01
			s0.64-0.56,1.09-0.74s0.94-0.28,1.47-0.28c0.57,0,1.06,0.11,1.45,0.32c0.39,0.21,0.68,0.49,0.87,0.83
			c0.19,0.34,0.28,0.71,0.28,1.12h-0.92c-0.03-0.42-0.19-0.77-0.48-1.05c-0.28-0.28-0.73-0.42-1.34-0.42
			c-0.39,0-0.74,0.06-1.04,0.17c-0.3,0.12-0.54,0.27-0.72,0.46s-0.28,0.39-0.32,0.6c-0.05,0.31,0.04,0.57,0.26,0.75
			c0.22,0.19,0.59,0.31,1.13,0.36l0.28,0.02c1.07,0.06,1.83,0.26,2.26,0.61c0.44,0.35,0.61,0.8,0.52,1.38
			c-0.06,0.38-0.24,0.73-0.52,1.06c-0.29,0.33-0.68,0.59-1.18,0.79c-0.5,0.2-1.07,0.3-1.72,0.3
			C81.42,195.9,80.91,195.8,80.48,195.59z"/>
		<path class="st0" d="M87.53,188.58h4.57l-0.14,0.84h-3.73l-0.37,2.34h3.31l-0.15,0.88h-3.3l-0.35,2.18h3.74l-0.13,0.88H86.4
			L87.53,188.58z"/>
		<path class="st0" d="M93.44,195.59c-0.43-0.2-0.74-0.48-0.94-0.83s-0.28-0.75-0.23-1.2h0.82c0.01,0.48,0.19,0.86,0.52,1.14
			c0.33,0.28,0.83,0.42,1.48,0.42c0.68,0,1.24-0.12,1.67-0.37c0.43-0.25,0.68-0.57,0.74-0.98c0.06-0.35-0.07-0.63-0.38-0.83
			c-0.32-0.19-0.87-0.32-1.67-0.37c-0.88-0.07-1.52-0.27-1.91-0.6c-0.39-0.33-0.54-0.79-0.45-1.36c0.07-0.36,0.24-0.7,0.52-1.01
			s0.64-0.56,1.09-0.74s0.94-0.28,1.47-0.28c0.57,0,1.06,0.11,1.45,0.32c0.39,0.21,0.68,0.49,0.87,0.83
			c0.19,0.34,0.28,0.71,0.28,1.12h-0.92c-0.03-0.42-0.19-0.77-0.48-1.05c-0.28-0.28-0.73-0.42-1.34-0.42
			c-0.39,0-0.74,0.06-1.04,0.17c-0.3,0.12-0.54,0.27-0.72,0.46s-0.28,0.39-0.32,0.6c-0.05,0.31,0.04,0.57,0.26,0.75
			c0.22,0.19,0.59,0.31,1.13,0.36l0.28,0.02c1.07,0.06,1.83,0.26,2.26,0.61c0.44,0.35,0.61,0.8,0.52,1.38
			c-0.06,0.38-0.24,0.73-0.52,1.06c-0.29,0.33-0.68,0.59-1.18,0.79c-0.5,0.2-1.07,0.3-1.72,0.3
			C94.38,195.9,93.87,195.8,93.44,195.59z"/>
		<path class="st0" d="M104.33,188.58h0.87l-1.13,7.12h-0.87L104.33,188.58z M104.76,188.58h2.03c0.64,0,1.17,0.17,1.6,0.5
			c0.43,0.33,0.74,0.78,0.92,1.32c0.18,0.55,0.22,1.13,0.12,1.74c-0.1,0.6-0.32,1.17-0.67,1.72c-0.35,0.55-0.79,0.99-1.34,1.33
			c-0.54,0.34-1.15,0.51-1.81,0.51h-2.25L104.76,188.58z M105.78,194.9c0.49,0,0.94-0.14,1.35-0.42c0.41-0.28,0.75-0.64,1-1.09
			s0.42-0.93,0.47-1.42c0.09-0.8-0.04-1.43-0.4-1.9s-0.91-0.7-1.66-0.7h-1.65l-0.75,5.52H105.78z"/>
		<path class="st0" d="M111.19,188.58h4.57l-0.14,0.84h-3.73l-0.37,2.34h3.31l-0.15,0.88h-3.3l-0.35,2.18h3.74l-0.13,0.88h-4.57
			L111.19,188.58z"/>
		<path class="st0" d="M121.56,190.15l-0.87,5.55h-0.84l1.13-7.12h1l1.63,5.88l3.82-5.88h0.93l-1.13,7.12h-0.86l0.88-5.62
			l-3.55,5.62h-0.67L121.56,190.15z"/>
		<path class="st0" d="M132.02,188.58h1.1l1.52,7.12h-0.96l-0.32-1.55h-3.37l-0.8,1.55h-0.99L132.02,188.58z M133.18,193.31
			l-0.76-3.83l-2.01,3.83H133.18z"/>
		<path class="st0" d="M137.45,189.95l-0.9,5.75h-0.84l1.13-7.12h0.84l3.3,5.95l0.94-5.95h0.83l-1.13,7.12h-0.95L137.45,189.95z"/>
		<path class="st0" d="M144.16,188.58h4.57l-0.14,0.84h-3.73l-0.37,2.34h3.31l-0.15,0.88h-3.3l-0.35,2.18h3.74l-0.13,0.88h-4.57
			L144.16,188.58z"/>
		<path class="st0" d="M150.03,195.46c-0.4-0.29-0.67-0.69-0.8-1.19s-0.11-1.08,0.05-1.71h0.84c-0.12,0.49-0.15,0.92-0.07,1.3
			s0.25,0.69,0.53,0.91s0.66,0.33,1.13,0.33c0.76,0,1.39-0.23,1.9-0.7c0.51-0.46,0.83-1.19,0.98-2.18l0.58-3.64h0.89l-0.57,3.62
			c-0.13,0.81-0.37,1.49-0.72,2.04c-0.35,0.55-0.79,0.97-1.33,1.25c-0.54,0.28-1.15,0.42-1.85,0.42
			C150.96,195.9,150.44,195.75,150.03,195.46z"/>
		<path class="st0" d="M157.73,195.42c-0.49-0.32-0.84-0.76-1.04-1.31c-0.21-0.55-0.25-1.17-0.12-1.85
			c0.12-0.66,0.37-1.26,0.77-1.82s0.9-1.01,1.51-1.34c0.61-0.33,1.26-0.5,1.97-0.5c0.69,0,1.28,0.16,1.76,0.47
			c0.49,0.31,0.83,0.75,1.04,1.31s0.25,1.19,0.13,1.89c-0.12,0.66-0.38,1.27-0.79,1.83c-0.41,0.56-0.92,1-1.52,1.33
			c-0.6,0.33-1.25,0.49-1.93,0.49C158.81,195.9,158.22,195.74,157.73,195.42z M161.13,194.71c0.45-0.26,0.82-0.61,1.11-1.04
			c0.29-0.44,0.48-0.91,0.58-1.41c0.1-0.54,0.08-1.03-0.06-1.46c-0.14-0.43-0.39-0.78-0.75-1.03s-0.83-0.38-1.38-0.38
			c-0.51,0-0.99,0.14-1.45,0.41s-0.83,0.62-1.13,1.07c-0.3,0.44-0.5,0.91-0.58,1.4c-0.11,0.56-0.09,1.06,0.05,1.49
			c0.14,0.43,0.39,0.77,0.76,1c0.37,0.24,0.82,0.36,1.36,0.36C160.18,195.1,160.68,194.97,161.13,194.71z"/>
		<path class="st0" d="M171.64,188.58h1.1l1.52,7.12h-0.96l-0.32-1.55h-3.37l-0.8,1.55h-0.99L171.64,188.58z M172.79,193.31
			l-0.76-3.83l-2.01,3.83H172.79z"/>
		<path class="st0" d="M180.21,188.58h0.87l-1.13,7.12h-0.87L180.21,188.58z M180.64,188.58h2.03c0.64,0,1.17,0.17,1.6,0.5
			c0.43,0.33,0.74,0.78,0.92,1.32c0.18,0.55,0.22,1.13,0.12,1.74c-0.1,0.6-0.32,1.17-0.67,1.72c-0.35,0.55-0.79,0.99-1.34,1.33
			c-0.54,0.34-1.15,0.51-1.81,0.51h-2.25L180.64,188.58z M181.66,194.9c0.49,0,0.94-0.14,1.35-0.42c0.41-0.28,0.75-0.64,1-1.09
			s0.42-0.93,0.47-1.42c0.09-0.8-0.04-1.43-0.4-1.9s-0.91-0.7-1.66-0.7h-1.65l-0.75,5.52H181.66z"/>
		<path class="st0" d="M187.43,195.42c-0.49-0.32-0.84-0.76-1.04-1.31c-0.21-0.55-0.25-1.17-0.12-1.85
			c0.12-0.66,0.37-1.26,0.77-1.82s0.9-1.01,1.51-1.34c0.61-0.33,1.26-0.5,1.97-0.5c0.69,0,1.28,0.16,1.76,0.47
			c0.49,0.31,0.83,0.75,1.04,1.31s0.25,1.19,0.13,1.89c-0.12,0.66-0.38,1.27-0.79,1.83c-0.41,0.56-0.92,1-1.52,1.33
			c-0.6,0.33-1.25,0.49-1.93,0.49C188.51,195.9,187.92,195.74,187.43,195.42z M190.83,194.71c0.45-0.26,0.82-0.61,1.11-1.04
			c0.29-0.44,0.48-0.91,0.58-1.41c0.1-0.54,0.08-1.03-0.06-1.46c-0.14-0.43-0.39-0.78-0.75-1.03s-0.83-0.38-1.38-0.38
			c-0.51,0-0.99,0.14-1.45,0.41s-0.83,0.62-1.13,1.07c-0.3,0.44-0.5,0.91-0.58,1.4c-0.11,0.56-0.09,1.06,0.05,1.49
			c0.14,0.43,0.39,0.77,0.76,1c0.37,0.24,0.82,0.36,1.36,0.36C189.88,195.1,190.38,194.97,190.83,194.71z"/>
		<path class="st0" d="M195.89,190.15l-0.87,5.55h-0.84l1.13-7.12h1l1.63,5.88l3.82-5.88h0.93l-1.13,7.12h-0.86l0.88-5.62
			l-3.55,5.62h-0.67L195.89,190.15z"/>
		<path class="st0" d="M204.19,188.58h0.83l-1.13,7.12h-0.83L204.19,188.58z"/>
		<path class="st0" d="M206.77,195.41c-0.46-0.32-0.78-0.76-0.97-1.32c-0.19-0.56-0.23-1.17-0.1-1.84c0.11-0.67,0.36-1.28,0.75-1.84
			c0.39-0.56,0.87-1,1.45-1.33c0.58-0.33,1.19-0.49,1.83-0.49c0.63,0,1.15,0.15,1.57,0.44c0.42,0.29,0.71,0.66,0.88,1.12
			c0.17,0.45,0.21,0.91,0.12,1.37h-0.86c0.05-0.4,0.01-0.77-0.12-1.09c-0.13-0.32-0.34-0.57-0.64-0.76
			c-0.3-0.18-0.68-0.28-1.13-0.28c-0.49,0-0.94,0.13-1.35,0.4s-0.76,0.62-1.04,1.06c-0.28,0.44-0.46,0.91-0.56,1.4
			c-0.11,0.57-0.1,1.07,0.02,1.5c0.12,0.43,0.35,0.77,0.69,1s0.75,0.36,1.26,0.36c0.39,0,0.76-0.09,1.11-0.26
			c0.35-0.17,0.65-0.42,0.91-0.73c0.25-0.31,0.43-0.66,0.54-1.06h0.92c-0.11,0.45-0.33,0.9-0.65,1.33c-0.32,0.44-0.74,0.8-1.25,1.09
			c-0.51,0.29-1.08,0.43-1.72,0.43C207.78,195.9,207.22,195.73,206.77,195.41z"/>
		<path class="st0" d="M214.07,188.58h0.83l-1.13,7.12h-0.83L214.07,188.58z"/>
		<path class="st0" d="M216.4,188.58h0.84l-0.99,6.28h3.73l-0.13,0.84h-4.57L216.4,188.58z"/>
		<path class="st0" d="M221.98,188.58h0.83l-1.13,7.12h-0.83L221.98,188.58z"/>
		<path class="st0" d="M224.65,195.42c-0.49-0.32-0.84-0.76-1.04-1.31c-0.21-0.55-0.25-1.17-0.12-1.85
			c0.12-0.66,0.37-1.26,0.77-1.82s0.9-1.01,1.51-1.34c0.61-0.33,1.26-0.5,1.97-0.5c0.69,0,1.28,0.16,1.76,0.47
			c0.49,0.31,0.83,0.75,1.04,1.31s0.25,1.19,0.13,1.89c-0.12,0.66-0.38,1.27-0.79,1.83c-0.41,0.56-0.92,1-1.52,1.33
			c-0.6,0.33-1.25,0.49-1.93,0.49C225.73,195.9,225.14,195.74,224.65,195.42z M228.05,194.71c0.45-0.26,0.82-0.61,1.11-1.04
			c0.29-0.44,0.48-0.91,0.58-1.41c0.1-0.54,0.08-1.03-0.06-1.46c-0.14-0.43-0.39-0.78-0.75-1.03s-0.83-0.38-1.38-0.38
			c-0.51,0-0.99,0.14-1.45,0.41s-0.83,0.62-1.13,1.07c-0.3,0.44-0.5,0.91-0.58,1.4c-0.11,0.56-0.09,1.06,0.05,1.49
			c0.14,0.43,0.39,0.77,0.76,1c0.37,0.24,0.82,0.36,1.36,0.36C227.1,195.1,227.6,194.97,228.05,194.71z"/>
	</g>
	<path d="M197.62,101l-13.98,36.72l-3.77,9.92l-9.41,24.73l-1.19,3.13h-6.01c-0.07-0.15-0.13-0.29-0.18-0.45l2.3-4.93l10.49-22.49
		l1.73-3.7L197.62,101z"/>
</g>
</svg>
