<?xml version="1.0" encoding="utf-8"?>
<!-- Generator: Adobe Illustrator 24.3.0, SVG Export Plug-In . SVG Version: 6.00 Build 0)  -->
<svg version="1.1" id="Capa_1" xmlns="http://www.w3.org/2000/svg" xmlns:xlink="http://www.w3.org/1999/xlink" x="0px" y="0px"
	 viewBox="0 0 300 300" style="enable-background:new 0 0 300 300;" xml:space="preserve">
<style type="text/css">
	.st0{fill-rule:evenodd;clip-rule:evenodd;fill:#1A1B1A;}
	.st1{fill:#282828;}
	.st2{fill:#ED9812;}
	.st3{fill-rule:evenodd;clip-rule:evenodd;fill:#ED9812;}
	.st4{fill:#F1AC49;}
	.st5{fill:#E9A542;}
	.st6{fill:none;stroke:#ED9812;stroke-width:25;stroke-miterlimit:10;}
	.st7{fill:none;stroke:#F6A75B;stroke-width:4;stroke-miterlimit:10;}
	.st8{fill-rule:evenodd;clip-rule:evenodd;fill:#FFFFFF;}
	.st9{fill:none;stroke:#1A1B1A;stroke-width:25;stroke-miterlimit:10;}
	.st10{fill:none;stroke:#F29100;stroke-width:25;stroke-miterlimit:10;}
	.st11{fill:#FFFFFF;stroke:#F29100;stroke-width:11;stroke-miterlimit:10;}
	.st12{fill:#FFFFFF;stroke:#1D1D1B;stroke-width:11;stroke-miterlimit:10;}
	.st13{fill:#1D1D1B;}
	.st14{fill:#35563D;stroke:#35563D;stroke-miterlimit:10;}
	.st15{fill:#D1CCB6;}
	.st16{fill:#B4AF93;}
	.st17{fill:#5F926F;}
	.st18{fill:#70A984;}
	.st19{fill:#ACD5B7;}
</style>
<g>
	<g>
		<g>
			<path class="st13" d="M89.1,196.64l9.52-18.97h1.93L89.1,200.51l-11.42-22.85h1.9L89.1,196.64z"/>
			<path class="st13" d="M107.83,200.13v-22.47h1.74v22.47H107.83z"/>
			<path class="st13" d="M128.06,196.64l9.52-18.97h1.93l-11.45,22.85l-11.42-22.85h1.9L128.06,196.64z"/>
			<path class="st13" d="M146.33,200.13v-22.47h16.29v1.59h-14.55v8.85h11.34v1.59h-11.34v8.81h14.55v1.62H146.33z"/>
			<path class="st13" d="M185.45,200.13L175,188.79h3.1c1.91,0,3.46-0.22,4.64-0.66c0.88-0.37,1.64-0.93,2.28-1.68
				c0.64-0.75,0.97-1.57,0.97-2.47c0-0.81-0.27-1.57-0.81-2.3c-0.54-0.73-1.32-1.32-2.32-1.78s-2.17-0.69-3.48-0.69h-7.04v20.91
				h-1.74v-22.47h8.78c1.19,0,2.29,0.17,3.33,0.5s1.94,0.81,2.71,1.43c0.75,0.6,1.32,1.28,1.72,2.04c0.4,0.76,0.6,1.54,0.6,2.35
				c0,1.27-0.43,2.4-1.28,3.4c-0.85,1-1.86,1.72-3.02,2.16c-0.8,0.32-1.58,0.52-2.34,0.6c-0.76,0.08-1.57,0.12-2.42,0.12l9.09,9.85
				H185.45z"/>
			<path class="st13" d="M206.62,200.37c-2.3,0-4.42-0.51-6.38-1.54c-1.96-1.03-3.51-2.42-4.64-4.18c-1.14-1.76-1.7-3.68-1.7-5.75
				c0-2.07,0.57-3.99,1.7-5.75c1.13-1.76,2.68-3.16,4.64-4.18c1.96-1.03,4.09-1.54,6.38-1.54c2.3,0,4.42,0.51,6.38,1.54
				c1.96,1.03,3.51,2.42,4.64,4.18c1.13,1.76,1.7,3.68,1.7,5.75c0,2.07-0.57,3.99-1.7,5.75c-1.14,1.76-2.68,3.16-4.64,4.18
				C211.04,199.86,208.91,200.37,206.62,200.37z M206.62,179.01c-1.99,0-3.82,0.44-5.5,1.33c-1.68,0.89-3.01,2.09-4,3.59
				c-0.99,1.51-1.49,3.16-1.49,4.96c0,1.8,0.5,3.45,1.49,4.96c0.99,1.51,2.33,2.71,4,3.59c1.68,0.89,3.51,1.33,5.5,1.33
				c1.99,0,3.82-0.44,5.49-1.33c1.68-0.89,3.01-2.08,3.99-3.59c0.98-1.51,1.47-3.16,1.47-4.96c0-1.8-0.49-3.45-1.47-4.96
				c-0.98-1.51-2.31-2.71-3.99-3.59C210.43,179.45,208.6,179.01,206.62,179.01z"/>
			<path class="st14" d="M95.73,239.76c0.84,0.98,1.26,2.09,1.26,3.33c0,0.81-0.2,1.6-0.6,2.37c-0.4,0.77-0.97,1.46-1.72,2.06
				c-0.77,0.6-1.68,1.07-2.73,1.4s-2.15,0.5-3.31,0.5h-9.25l0.04-22.47h7.2c2.35,0,4.22,0.59,5.61,1.76
				c0.64,0.53,1.14,1.14,1.49,1.83c0.35,0.69,0.52,1.41,0.52,2.14c0,0.92-0.24,1.76-0.72,2.52c-0.48,0.76-1.06,1.35-1.76,1.76
				l-0.35,0.21c0.49,0.14,0.92,0.28,1.28,0.42C93.88,238.06,94.9,238.78,95.73,239.76z M81.16,236.73h5.38c0.7,0,1.28-0.03,1.74-0.1
				s0.93-0.18,1.39-0.35c0.67-0.25,1.31-0.69,1.92-1.31c0.61-0.62,0.91-1.38,0.91-2.28c0-0.71-0.23-1.39-0.68-2.02
				c-0.45-0.63-1.12-1.15-2.01-1.54c-0.89-0.39-1.95-0.59-3.19-0.59h-5.46V236.73z M92.12,247.17c1.01-0.46,1.78-1.05,2.32-1.78
				c0.54-0.73,0.81-1.49,0.81-2.3c0-0.9-0.32-1.71-0.95-2.44c-0.63-0.73-1.39-1.26-2.26-1.61c-1.24-0.48-2.8-0.73-4.68-0.73h-6.19
				v9.54h7.47C89.95,247.86,91.11,247.63,92.12,247.17z"/>
			<path class="st14" d="M104.69,249.42v-22.47h1.74v22.47H104.69z"/>
			<path class="st14" d="M118.62,243.71l-2.98,5.7h-1.94l11.84-22.74l11.18,22.74h-1.9l-2.83-5.7H118.62z M125.47,230.51
				l-6.04,11.65h11.8L125.47,230.51z"/>
			<path class="st14" d="M145.32,231.17v18.25h-1.74v-22.74l17.41,18.59v-18.32h1.74v22.85L145.32,231.17z"/>
			<path class="st14" d="M182.66,249.66c-2.3,0-4.42-0.52-6.38-1.56c-1.96-1.04-3.51-2.44-4.64-4.2c-1.14-1.76-1.7-3.68-1.7-5.75
				c0-2.07,0.57-3.99,1.7-5.74c1.13-1.75,2.68-3.14,4.64-4.18c1.96-1.04,4.09-1.56,6.38-1.56c1.78,0,3.49,0.33,5.13,0.99
				c1.64,0.66,3.08,1.58,4.31,2.78l-1.35,1.07c-1.03-1.04-2.25-1.84-3.66-2.42c-1.41-0.58-2.88-0.86-4.43-0.86
				c-1.99,0-3.82,0.44-5.5,1.33c-1.68,0.89-3.01,2.09-4,3.61s-1.49,3.18-1.49,4.98c0,1.8,0.5,3.46,1.49,4.98
				c0.99,1.52,2.33,2.72,4,3.61c1.68,0.89,3.51,1.33,5.5,1.33c1.65,0,3.22-0.32,4.7-0.97s2.75-1.54,3.81-2.7l1.39,0.97
				c-1.21,1.36-2.68,2.41-4.41,3.16S184.6,249.66,182.66,249.66z"/>
			<path class="st14" d="M202.51,243.71l-2.98,5.7h-1.93l11.84-22.74l11.18,22.74h-1.9l-2.82-5.7H202.51z M209.36,230.51
				l-6.04,11.65h11.8L209.36,230.51z"/>
		</g>
	</g>
	<polygon class="st15" points="255.75,151.21 44.25,151.21 12.94,146.77 287.06,146.77 	"/>
	<circle class="st15" cx="100.92" cy="111.39" r="3.41"/>
	<circle class="st16" cx="199.29" cy="111.39" r="3.41"/>
	<circle class="st15" cx="49.43" cy="123.5" r="3.41"/>
	<circle class="st16" cx="250.57" cy="123.5" r="3.41"/>
	<g>
		<path class="st17" d="M153.87,123.32c0,0-1.73-17.31,5.36-33.1c7.09-15.78,15.6-23.46,21.15-28.95c0,0,0.73,4.8-1.96,18.39
			C174.24,100.82,153.87,123.32,153.87,123.32z"/>
		<path class="st18" d="M141.2,140.93c0,0-5.06-25.89,4.76-50.68s23.03-37.54,31.59-46.58c0,0,1.82,7.14-0.94,28.03
			C172.3,104.18,141.2,140.93,141.2,140.93z"/>
		<path class="st19" d="M141.2,134.83c0,0-1.9-16.02,1.41-30.93c3.31-14.91,7.87-22.35,10.82-27.64c0,0,0.67,4.43-0.19,17.15
			C151.9,113.19,141.2,134.83,141.2,134.83z"/>
	</g>
</g>
</svg>
