<?xml version="1.0" encoding="utf-8"?>
<!-- Generator: Adobe Illustrator 24.3.0, SVG Export Plug-In . SVG Version: 6.00 Build 0)  -->
<svg version="1.1" id="Capa_1" xmlns="http://www.w3.org/2000/svg" xmlns:xlink="http://www.w3.org/1999/xlink" x="0px" y="0px"
	 viewBox="0 0 300 300" style="enable-background:new 0 0 300 300;" xml:space="preserve">
<style type="text/css">
	.st0{fill-rule:evenodd;clip-rule:evenodd;fill:#1A1B1A;}
	.st1{fill:#282828;}
	.st2{fill:#ED9812;}
	.st3{fill-rule:evenodd;clip-rule:evenodd;fill:#ED9812;}
	.st4{fill:#F1AC49;}
	.st5{fill:#E9A542;}
	.st6{fill:none;stroke:#ED9812;stroke-width:25;stroke-miterlimit:10;}
	.st7{fill:none;stroke:#F6A75B;stroke-width:4;stroke-miterlimit:10;}
	.st8{fill-rule:evenodd;clip-rule:evenodd;fill:#FFFFFF;}
	.st9{fill:none;stroke:#1A1B1A;stroke-width:25;stroke-miterlimit:10;}
	.st10{fill:none;stroke:#F29100;stroke-width:25;stroke-miterlimit:10;}
	.st11{fill:#FFFFFF;stroke:#F29100;stroke-width:11;stroke-miterlimit:10;}
	.st12{fill:#FFFFFF;stroke:#1D1D1B;stroke-width:11;stroke-miterlimit:10;}
	.st13{fill:#1D1D1B;}
	.st14{fill:#35563D;stroke:#35563D;stroke-miterlimit:10;}
	.st15{fill:#D1CCB6;}
	.st16{fill:#B4AF93;}
	.st17{fill:#5F926F;}
	.st18{fill:#70A984;}
	.st19{fill:#ACD5B7;}
</style>
<g>
	<g>
		<g>
			<path class="st13" d="M25.39,215.07l8.96-17.85h1.82l-10.78,21.49l-10.74-21.49h1.78L25.39,215.07z"/>
			<path class="st13" d="M41.73,218.35v-21.13h1.64v21.13H41.73z"/>
			<path class="st13" d="M59.5,215.07l8.96-17.85h1.82L59.5,218.71l-10.74-21.49h1.78L59.5,215.07z"/>
			<path class="st13" d="M75.41,218.35v-21.13h15.33v1.5H77.05v8.32h10.67v1.5H77.05v8.29h13.69v1.53H75.41z"/>
			<path class="st13" d="M110.94,218.35l-9.83-10.67h2.91c1.79,0,3.25-0.21,4.37-0.62c0.83-0.35,1.54-0.87,2.15-1.58
				c0.61-0.7,0.91-1.48,0.91-2.32c0-0.76-0.25-1.48-0.76-2.16c-0.51-0.68-1.24-1.24-2.18-1.67s-2.04-0.65-3.28-0.65H98.6v19.67
				h-1.64v-21.13h8.26c1.12,0,2.16,0.16,3.13,0.47c0.97,0.31,1.82,0.76,2.55,1.35c0.7,0.56,1.24,1.2,1.62,1.92
				c0.38,0.71,0.56,1.45,0.56,2.21c0,1.19-0.4,2.26-1.2,3.2c-0.8,0.94-1.75,1.62-2.84,2.03c-0.75,0.3-1.49,0.49-2.2,0.57
				c-0.72,0.08-1.47,0.11-2.28,0.11l8.55,9.27H110.94z"/>
			<path class="st13" d="M129.58,218.58c-2.16,0-4.16-0.48-6.01-1.45c-1.84-0.96-3.3-2.28-4.37-3.93c-1.07-1.66-1.6-3.46-1.6-5.41
				s0.53-3.76,1.6-5.41c1.07-1.66,2.52-2.97,4.37-3.93c1.84-0.96,3.85-1.45,6.01-1.45c2.16,0,4.16,0.48,6.01,1.45
				c1.84,0.96,3.3,2.28,4.37,3.93c1.07,1.66,1.6,3.46,1.6,5.41s-0.53,3.75-1.6,5.41c-1.07,1.66-2.52,2.97-4.37,3.93
				C133.74,218.1,131.74,218.58,129.58,218.58z M129.58,198.48c-1.87,0-3.59,0.42-5.17,1.25c-1.58,0.83-2.83,1.96-3.77,3.38
				c-0.93,1.42-1.4,2.97-1.4,4.67c0,1.69,0.47,3.25,1.4,4.67c0.93,1.42,2.19,2.55,3.77,3.38c1.58,0.83,3.3,1.25,5.17,1.25
				c1.87,0,3.59-0.42,5.17-1.25c1.58-0.83,2.83-1.96,3.75-3.38c0.92-1.42,1.38-2.98,1.38-4.67c0-1.69-0.46-3.25-1.38-4.67
				c-0.92-1.42-2.17-2.55-3.75-3.38C133.17,198.9,131.45,198.48,129.58,198.48z"/>
			<path class="st14" d="M174.12,209.26c0.79,0.92,1.18,1.97,1.18,3.14c0,0.76-0.19,1.5-0.56,2.23s-0.92,1.37-1.62,1.93
				c-0.73,0.56-1.58,1-2.57,1.32c-0.98,0.31-2.02,0.47-3.11,0.47h-8.7l0.04-21.13h6.77c2.21,0,3.97,0.55,5.28,1.66
				c0.61,0.5,1.07,1.07,1.4,1.72c0.33,0.65,0.49,1.32,0.49,2.02c0,0.87-0.22,1.66-0.67,2.37c-0.45,0.72-1,1.27-1.66,1.66l-0.33,0.2
				c0.46,0.13,0.86,0.26,1.2,0.39C172.38,207.67,173.33,208.34,174.12,209.26z M160.41,206.42h5.06c0.66,0,1.2-0.03,1.64-0.1
				c0.44-0.06,0.87-0.17,1.31-0.33c0.63-0.24,1.23-0.65,1.8-1.24c0.57-0.58,0.86-1.3,0.86-2.15c0-0.67-0.21-1.31-0.64-1.9
				c-0.43-0.6-1.06-1.08-1.89-1.45c-0.84-0.37-1.84-0.55-3-0.55h-5.13V206.42z M170.71,216.24c0.95-0.43,1.67-0.99,2.18-1.67
				s0.76-1.4,0.76-2.16c0-0.85-0.3-1.61-0.89-2.29c-0.59-0.68-1.3-1.19-2.13-1.51c-1.17-0.46-2.63-0.68-4.41-0.68h-5.83v8.97h7.03
				C168.68,216.89,169.77,216.67,170.71,216.24z"/>
			<path class="st14" d="M181.27,218.35v-21.13h1.64v21.13H181.27z"/>
			<path class="st14" d="M193.1,212.99l-2.8,5.37h-1.82l11.14-21.4l10.52,21.4h-1.78l-2.66-5.37H193.1z M199.55,200.57l-5.68,10.96
				h11.1L199.55,200.57z"/>
			<path class="st14" d="M216.95,201.18v17.17h-1.64v-21.4l16.38,17.49v-17.23h1.64v21.49L216.95,201.18z"/>
			<path class="st14" d="M250.8,218.58c-2.16,0-4.16-0.49-6.01-1.46c-1.84-0.98-3.3-2.29-4.37-3.95c-1.07-1.66-1.6-3.46-1.6-5.41
				c0-1.95,0.53-3.75,1.6-5.4c1.07-1.65,2.52-2.96,4.37-3.93c1.84-0.97,3.85-1.46,6.01-1.46c1.67,0,3.28,0.31,4.82,0.93
				c1.54,0.62,2.89,1.49,4.06,2.62l-1.27,1.01c-0.97-0.98-2.12-1.73-3.44-2.28c-1.32-0.54-2.71-0.81-4.17-0.81
				c-1.87,0-3.59,0.42-5.17,1.25c-1.58,0.83-2.83,1.97-3.77,3.4c-0.93,1.43-1.4,2.99-1.4,4.68c0,1.69,0.47,3.25,1.4,4.68
				c0.93,1.43,2.19,2.56,3.77,3.4c1.58,0.83,3.3,1.25,5.17,1.25c1.55,0,3.03-0.3,4.42-0.91c1.4-0.61,2.59-1.45,3.59-2.54l1.31,0.91
				c-1.14,1.28-2.52,2.27-4.15,2.98C254.35,218.23,252.62,218.58,250.8,218.58z"/>
			<path class="st14" d="M268.2,212.99l-2.8,5.37h-1.82l11.14-21.4l10.52,21.4h-1.78l-2.66-5.37H268.2z M274.65,200.57l-5.68,10.96
				h11.1L274.65,200.57z"/>
		</g>
	</g>
	<polygon class="st15" points="249.49,176.32 50.51,176.32 21.05,172.14 278.95,172.14 	"/>
	<circle class="st15" cx="103.82" cy="138.85" r="3.21"/>
	<circle class="st16" cx="196.38" cy="138.85" r="3.21"/>
	<circle class="st15" cx="55.38" cy="150.24" r="3.21"/>
	<circle class="st16" cx="244.62" cy="150.24" r="3.21"/>
	<g>
		<path class="st17" d="M153.64,150.08c0,0-1.62-16.29,5.05-31.14c6.67-14.85,14.68-22.07,19.9-27.23c0,0,0.69,4.51-1.84,17.31
			C172.8,128.91,153.64,150.08,153.64,150.08z"/>
		<path class="st18" d="M141.72,166.65c0,0-4.76-24.36,4.48-47.68c9.24-23.32,21.67-35.32,29.72-43.82c0,0,1.72,6.71-0.89,26.37
			C170.98,132.07,141.72,166.65,141.72,166.65z"/>
		<path class="st19" d="M141.72,160.9c0,0-1.79-15.07,1.33-29.1s7.4-21.02,10.18-26.01c0,0,0.63,4.16-0.18,16.14
			C151.79,140.55,141.72,160.9,141.72,160.9z"/>
	</g>
</g>
</svg>
