<?xml version="1.0" encoding="utf-8"?>
<!-- Generator: Adobe Illustrator 24.3.0, SVG Export Plug-In . SVG Version: 6.00 Build 0)  -->
<svg version="1.1" id="Capa_1" xmlns="http://www.w3.org/2000/svg" xmlns:xlink="http://www.w3.org/1999/xlink" x="0px" y="0px"
	 viewBox="0 0 300 300" style="enable-background:new 0 0 300 300;" xml:space="preserve">
<style type="text/css">
	.st0{fill:#FFFFFF;}
	.st1{fill:none;stroke:#000000;stroke-miterlimit:10;}
	.st2{fill:#C60C1E;}
	.st3{fill:#0D0D0D;}
	.st4{fill:#FFFFFF;stroke:#FFFFFF;stroke-miterlimit:10;}
	.st5{fill:#E20613;}
	.st6{fill:#E10A19;}
	.st7{fill-rule:evenodd;clip-rule:evenodd;fill:#1A1B1A;}
	.st8{fill:#282828;}
	.st9{fill:#ED9812;}
	.st10{fill-rule:evenodd;clip-rule:evenodd;fill:#ED9812;}
	.st11{fill:#F1AC49;}
	.st12{fill:#E9A542;}
	.st13{fill:none;stroke:#ED9812;stroke-width:25;stroke-miterlimit:10;}
	.st14{fill:none;stroke:#F6A75B;stroke-width:4;stroke-miterlimit:10;}
	.st15{fill-rule:evenodd;clip-rule:evenodd;fill:#FFFFFF;}
	.st16{fill:#1A1B1A;}
	.st17{fill:none;stroke:#1A1B1A;stroke-width:25;stroke-miterlimit:10;}
	.st18{fill:none;stroke:#F29100;stroke-width:25;stroke-miterlimit:10;}
	.st19{fill:#FFFFFF;stroke:#F29100;stroke-width:11;stroke-miterlimit:10;}
	.st20{fill:#FFFFFF;stroke:#1D1D1B;stroke-width:11;stroke-miterlimit:10;}
</style>
<g id="Layer_x0020_1_32_">
	<g>
		<path class="st7" d="M53.58,232.51l-0.32-0.23c-0.32-0.89-0.33-2.22,0.61-3.55l67.71-84.64l-27.92-22.47
			c-0.63-0.45-0.96-1.34-0.33-2.22c0.31-1.11,0.94-1.99,1.57-2.21l149.16-87.86c1.26-0.43,2.21-0.42,2.53,0.47
			c0.64,1.12,0.33,2.22-0.61,3.55l-73.09,82.14l35.83,25.44c0.63,0.45,0.64,1.12,0.33,2.22s-0.94,1.99-1.57,2.21L55.79,232.75
			C55.16,232.97,54.22,232.96,53.58,232.51z"/>
	</g>
</g>
<g>
	<g>
		<path class="st16" d="M67.58,262.7c-0.28-0.32-0.66-0.58-1.14-0.78c-0.48-0.2-1.01-0.3-1.6-0.3c-0.9,0-1.55,0.17-1.95,0.5
			c-0.41,0.33-0.61,0.79-0.61,1.36c0,0.3,0.05,0.55,0.16,0.74c0.11,0.19,0.28,0.36,0.51,0.5c0.23,0.14,0.52,0.26,0.88,0.37
			c0.35,0.1,0.77,0.21,1.25,0.31c0.54,0.11,1.02,0.24,1.44,0.37c0.42,0.14,0.79,0.31,1.09,0.52c0.3,0.21,0.53,0.47,0.69,0.78
			c0.16,0.31,0.24,0.69,0.24,1.14c0,0.46-0.09,0.86-0.27,1.2c-0.18,0.34-0.43,0.62-0.75,0.85c-0.32,0.23-0.7,0.39-1.15,0.5
			c-0.44,0.11-0.92,0.16-1.44,0.16c-1.57,0-2.92-0.49-4.03-1.46l0.48-0.81c0.37,0.39,0.86,0.71,1.48,0.98
			c0.62,0.27,1.32,0.4,2.08,0.4c0.8,0,1.43-0.14,1.88-0.43c0.45-0.29,0.68-0.72,0.68-1.31c0-0.31-0.06-0.57-0.19-0.78
			c-0.13-0.21-0.32-0.4-0.57-0.55c-0.25-0.16-0.57-0.29-0.95-0.4c-0.38-0.11-0.82-0.23-1.32-0.34c-0.53-0.12-0.99-0.25-1.39-0.38
			c-0.4-0.13-0.73-0.3-1-0.5c-0.27-0.2-0.47-0.44-0.61-0.71c-0.14-0.28-0.21-0.62-0.21-1.03c0-0.46,0.09-0.87,0.26-1.24
			c0.17-0.36,0.42-0.66,0.73-0.9c0.32-0.24,0.69-0.42,1.13-0.55c0.44-0.13,0.92-0.19,1.45-0.19c0.66,0,1.25,0.1,1.77,0.3
			c0.52,0.2,1,0.49,1.42,0.86L67.58,262.7z"/>
		<path class="st16" d="M74.41,270.93c-0.7,0-1.34-0.14-1.92-0.43s-1.08-0.67-1.49-1.15c-0.41-0.48-0.73-1.02-0.96-1.63
			c-0.23-0.61-0.34-1.24-0.34-1.88c0-0.67,0.12-1.31,0.36-1.92c0.24-0.61,0.57-1.15,1-1.63c0.42-0.47,0.92-0.85,1.5-1.12
			c0.57-0.28,1.2-0.42,1.87-0.42c0.7,0,1.34,0.15,1.92,0.45c0.58,0.3,1.08,0.69,1.48,1.17c0.41,0.48,0.73,1.03,0.95,1.63
			c0.23,0.61,0.34,1.23,0.34,1.86c0,0.67-0.12,1.31-0.36,1.92c-0.24,0.61-0.57,1.15-0.99,1.62c-0.42,0.47-0.92,0.84-1.49,1.12
			C75.7,270.79,75.08,270.93,74.41,270.93z M70.69,265.84c0,0.55,0.09,1.07,0.27,1.58c0.18,0.5,0.43,0.95,0.76,1.34
			c0.33,0.39,0.72,0.7,1.17,0.93c0.45,0.23,0.96,0.35,1.51,0.35c0.57,0,1.08-0.12,1.54-0.37c0.46-0.24,0.85-0.57,1.17-0.96
			c0.32-0.4,0.57-0.84,0.74-1.34s0.26-1.01,0.26-1.53c0-0.55-0.09-1.07-0.28-1.58c-0.18-0.5-0.44-0.95-0.77-1.34
			c-0.33-0.39-0.72-0.69-1.17-0.93s-0.95-0.35-1.5-0.35c-0.57,0-1.08,0.12-1.54,0.36c-0.46,0.24-0.85,0.56-1.17,0.95
			c-0.32,0.4-0.57,0.84-0.74,1.34C70.78,264.82,70.69,265.32,70.69,265.84z"/>
		<path class="st16" d="M81.03,270.86v-10.04H82v9.16h5.81v0.88H81.03z"/>
		<path class="st16" d="M92.82,270.04c0.63,0,1.16-0.12,1.58-0.36c0.42-0.24,0.75-0.56,1-0.95c0.25-0.39,0.42-0.84,0.52-1.34
			c0.1-0.5,0.15-1,0.15-1.51v-5.06h0.99v5.06c0,0.68-0.08,1.32-0.23,1.93c-0.15,0.61-0.39,1.14-0.73,1.6
			c-0.33,0.46-0.77,0.83-1.31,1.1c-0.54,0.27-1.19,0.41-1.97,0.41c-0.8,0-1.47-0.14-2.01-0.43c-0.54-0.29-0.97-0.67-1.3-1.14
			c-0.33-0.47-0.57-1.01-0.71-1.61s-0.21-1.23-0.21-1.87v-5.06h0.98v5.06c0,0.53,0.05,1.04,0.16,1.54s0.28,0.94,0.53,1.33
			c0.25,0.39,0.58,0.7,1,0.93C91.68,269.93,92.2,270.04,92.82,270.04z"/>
		<path class="st16" d="M98.79,265.77c0-0.6,0.11-1.2,0.32-1.8c0.21-0.6,0.52-1.13,0.93-1.6c0.41-0.47,0.9-0.86,1.5-1.15
			s1.27-0.45,2.02-0.45c0.9,0,1.66,0.2,2.29,0.61c0.63,0.41,1.1,0.93,1.41,1.58l-0.79,0.48c-0.16-0.33-0.35-0.61-0.58-0.83
			c-0.23-0.23-0.47-0.41-0.73-0.55c-0.26-0.14-0.54-0.24-0.82-0.3s-0.56-0.09-0.83-0.09c-0.6,0-1.14,0.12-1.6,0.37
			c-0.46,0.24-0.85,0.57-1.17,0.96c-0.32,0.4-0.55,0.84-0.71,1.34s-0.24,1-0.24,1.51c0,0.56,0.1,1.09,0.29,1.6
			c0.19,0.51,0.46,0.96,0.79,1.35c0.33,0.39,0.73,0.7,1.19,0.93c0.46,0.23,0.95,0.35,1.49,0.35c0.28,0,0.57-0.04,0.87-0.11
			c0.3-0.07,0.58-0.18,0.86-0.34c0.28-0.16,0.54-0.35,0.77-0.58c0.24-0.23,0.43-0.51,0.59-0.84l0.82,0.42
			c-0.16,0.38-0.39,0.71-0.68,1s-0.62,0.53-0.98,0.73c-0.36,0.2-0.74,0.35-1.14,0.45c-0.4,0.1-0.79,0.16-1.18,0.16
			c-0.69,0-1.32-0.15-1.89-0.45c-0.58-0.3-1.07-0.7-1.48-1.18c-0.41-0.49-0.74-1.04-0.97-1.65
			C98.9,267.04,98.79,266.41,98.79,265.77z"/>
		<path class="st16" d="M109.18,270.86v-10.03h0.98v10.03H109.18z"/>
		<path class="st16" d="M116.77,270.93c-0.7,0-1.34-0.14-1.92-0.43c-0.58-0.29-1.08-0.67-1.49-1.15c-0.41-0.48-0.73-1.02-0.96-1.63
			c-0.23-0.61-0.34-1.24-0.34-1.88c0-0.67,0.12-1.31,0.36-1.92s0.57-1.15,1-1.63c0.42-0.47,0.92-0.85,1.5-1.12
			c0.57-0.28,1.2-0.42,1.87-0.42c0.7,0,1.34,0.15,1.92,0.45c0.58,0.3,1.08,0.69,1.48,1.17c0.41,0.48,0.73,1.03,0.95,1.63
			c0.23,0.61,0.34,1.23,0.34,1.86c0,0.67-0.12,1.31-0.36,1.92c-0.24,0.61-0.57,1.15-0.99,1.62c-0.42,0.47-0.92,0.84-1.49,1.12
			C118.06,270.79,117.44,270.93,116.77,270.93z M113.05,265.84c0,0.55,0.09,1.07,0.27,1.58c0.18,0.5,0.43,0.95,0.76,1.34
			c0.33,0.39,0.72,0.7,1.17,0.93c0.45,0.23,0.96,0.35,1.51,0.35c0.57,0,1.08-0.12,1.54-0.37c0.46-0.24,0.85-0.57,1.17-0.96
			c0.32-0.4,0.57-0.84,0.74-1.34c0.17-0.5,0.26-1.01,0.26-1.53c0-0.55-0.09-1.07-0.28-1.58c-0.18-0.5-0.44-0.95-0.77-1.34
			c-0.33-0.39-0.72-0.69-1.17-0.93c-0.45-0.23-0.95-0.35-1.5-0.35c-0.57,0-1.08,0.12-1.54,0.36c-0.46,0.24-0.85,0.56-1.17,0.95
			c-0.32,0.4-0.57,0.84-0.74,1.34C113.14,264.82,113.05,265.32,113.05,265.84z"/>
		<path class="st16" d="M124.36,262.66v8.2h-0.98v-10.04h0.76l6.65,8.36v-8.34h0.98v10.03h-0.85L124.36,262.66z"/>
		<path class="st16" d="M141.06,269.99v0.88h-6.75v-10.04h6.62v0.88h-5.64v3.62h4.92v0.83h-4.92v3.83H141.06z"/>
		<path class="st16" d="M148.71,262.7c-0.28-0.32-0.66-0.58-1.14-0.78c-0.48-0.2-1.01-0.3-1.6-0.3c-0.9,0-1.55,0.17-1.95,0.5
			c-0.41,0.33-0.61,0.79-0.61,1.36c0,0.3,0.05,0.55,0.16,0.74c0.11,0.19,0.28,0.36,0.51,0.5c0.23,0.14,0.52,0.26,0.88,0.37
			c0.35,0.1,0.77,0.21,1.25,0.31c0.54,0.11,1.02,0.24,1.44,0.37c0.42,0.14,0.79,0.31,1.09,0.52c0.3,0.21,0.53,0.47,0.69,0.78
			c0.16,0.31,0.24,0.69,0.24,1.14c0,0.46-0.09,0.86-0.27,1.2c-0.18,0.34-0.43,0.62-0.75,0.85s-0.7,0.39-1.15,0.5
			c-0.44,0.11-0.92,0.16-1.44,0.16c-1.57,0-2.92-0.49-4.03-1.46l0.48-0.81c0.37,0.39,0.86,0.71,1.48,0.98
			c0.62,0.27,1.32,0.4,2.08,0.4c0.8,0,1.43-0.14,1.88-0.43c0.45-0.29,0.68-0.72,0.68-1.31c0-0.31-0.06-0.57-0.19-0.78
			c-0.13-0.21-0.32-0.4-0.57-0.55c-0.25-0.16-0.57-0.29-0.95-0.4c-0.38-0.11-0.82-0.23-1.32-0.34c-0.53-0.12-0.99-0.25-1.39-0.38
			c-0.4-0.13-0.73-0.3-1-0.5c-0.27-0.2-0.47-0.44-0.61-0.71c-0.14-0.28-0.21-0.62-0.21-1.03c0-0.46,0.09-0.87,0.26-1.24
			c0.17-0.36,0.42-0.66,0.73-0.9c0.32-0.24,0.69-0.42,1.13-0.55c0.44-0.13,0.92-0.19,1.45-0.19c0.66,0,1.25,0.1,1.77,0.3
			c0.52,0.2,1,0.49,1.42,0.86L148.71,262.7z"/>
		<path class="st16" d="M161.84,269.99v0.88h-6.75v-10.04h6.62v0.88h-5.64v3.62h4.92v0.83h-4.92v3.83H161.84z"/>
		<path class="st16" d="M163.76,270.86v-10.04h0.98v9.16h5.81v0.88H163.76z"/>
		<path class="st16" d="M178.85,269.99v0.88h-6.75v-10.04h6.62v0.88h-5.64v3.62H178v0.83h-4.92v3.83H178.85z"/>
		<path class="st16" d="M180.12,265.77c0-0.6,0.11-1.2,0.32-1.8c0.21-0.6,0.52-1.13,0.93-1.6c0.41-0.47,0.9-0.86,1.5-1.15
			s1.27-0.45,2.02-0.45c0.9,0,1.66,0.2,2.29,0.61c0.63,0.41,1.1,0.93,1.41,1.58l-0.79,0.48c-0.16-0.33-0.35-0.61-0.58-0.83
			c-0.23-0.23-0.47-0.41-0.73-0.55c-0.26-0.14-0.54-0.24-0.82-0.3c-0.28-0.06-0.56-0.09-0.83-0.09c-0.6,0-1.14,0.12-1.6,0.37
			c-0.46,0.24-0.85,0.57-1.17,0.96c-0.32,0.4-0.55,0.84-0.71,1.34c-0.16,0.49-0.24,1-0.24,1.51c0,0.56,0.1,1.09,0.29,1.6
			c0.19,0.51,0.46,0.96,0.79,1.35c0.33,0.39,0.73,0.7,1.19,0.93c0.46,0.23,0.95,0.35,1.49,0.35c0.28,0,0.57-0.04,0.87-0.11
			c0.3-0.07,0.58-0.18,0.86-0.34s0.54-0.35,0.77-0.58c0.24-0.23,0.43-0.51,0.59-0.84l0.82,0.42c-0.16,0.38-0.39,0.71-0.68,1
			s-0.62,0.53-0.98,0.73c-0.36,0.2-0.74,0.35-1.14,0.45c-0.4,0.1-0.79,0.16-1.18,0.16c-0.69,0-1.32-0.15-1.89-0.45
			c-0.58-0.3-1.07-0.7-1.48-1.18c-0.41-0.49-0.74-1.04-0.97-1.65C180.23,267.04,180.12,266.41,180.12,265.77z"/>
		<path class="st16" d="M197.54,261.7h-3.58v9.16h-0.99v-9.16h-3.58v-0.88h8.14V261.7z"/>
		<path class="st16" d="M199.08,270.86v-10.04h4.23c0.43,0,0.83,0.09,1.2,0.28c0.37,0.18,0.68,0.42,0.95,0.72
			c0.26,0.3,0.47,0.63,0.62,1.01c0.15,0.38,0.22,0.76,0.22,1.15c0,0.37-0.05,0.72-0.16,1.05c-0.11,0.33-0.26,0.64-0.46,0.9
			c-0.2,0.27-0.43,0.49-0.71,0.68c-0.27,0.18-0.58,0.31-0.92,0.37l2.47,3.87h-1.12l-2.38-3.7h-2.97v3.7H199.08z M200.06,266.28h3.29
			c0.29,0,0.56-0.06,0.8-0.19c0.24-0.13,0.45-0.3,0.62-0.52c0.17-0.22,0.3-0.46,0.4-0.73c0.09-0.27,0.14-0.56,0.14-0.86
			s-0.05-0.59-0.16-0.87c-0.11-0.28-0.25-0.52-0.44-0.73c-0.18-0.21-0.4-0.37-0.65-0.49c-0.25-0.12-0.51-0.18-0.78-0.18h-3.21
			V266.28z"/>
		<path class="st16" d="M208.41,270.86v-10.03h0.98v10.03H208.41z"/>
		<path class="st16" d="M211.28,265.77c0-0.6,0.11-1.2,0.32-1.8c0.21-0.6,0.52-1.13,0.93-1.6c0.41-0.47,0.9-0.86,1.5-1.15
			s1.27-0.45,2.02-0.45c0.9,0,1.66,0.2,2.29,0.61c0.63,0.41,1.1,0.93,1.41,1.58l-0.79,0.48c-0.16-0.33-0.35-0.61-0.58-0.83
			c-0.23-0.23-0.47-0.41-0.73-0.55c-0.26-0.14-0.54-0.24-0.82-0.3c-0.28-0.06-0.56-0.09-0.83-0.09c-0.6,0-1.14,0.12-1.6,0.37
			c-0.46,0.24-0.85,0.57-1.17,0.96c-0.32,0.4-0.55,0.84-0.71,1.34s-0.24,1-0.24,1.51c0,0.56,0.1,1.09,0.29,1.6
			c0.19,0.51,0.46,0.96,0.79,1.35c0.33,0.39,0.73,0.7,1.19,0.93c0.46,0.23,0.95,0.35,1.49,0.35c0.28,0,0.57-0.04,0.87-0.11
			c0.3-0.07,0.58-0.18,0.86-0.34c0.28-0.16,0.54-0.35,0.77-0.58c0.24-0.23,0.43-0.51,0.59-0.84l0.82,0.42
			c-0.16,0.38-0.39,0.71-0.68,1s-0.62,0.53-0.98,0.73s-0.74,0.35-1.14,0.45c-0.4,0.1-0.79,0.16-1.18,0.16
			c-0.69,0-1.32-0.15-1.89-0.45c-0.58-0.3-1.07-0.7-1.48-1.18c-0.41-0.49-0.74-1.04-0.97-1.65
			C211.4,267.04,211.28,266.41,211.28,265.77z"/>
		<path class="st16" d="M220.47,270.86l4.2-10.04h0.81l4.2,10.04h-1.06l-1.3-3.14h-4.51l-1.29,3.14H220.47z M225.08,261.98
			l-2.06,4.96h4.07L225.08,261.98z"/>
		<path class="st16" d="M236.88,262.7c-0.28-0.32-0.66-0.58-1.14-0.78c-0.48-0.2-1.01-0.3-1.6-0.3c-0.9,0-1.55,0.17-1.95,0.5
			c-0.41,0.33-0.61,0.79-0.61,1.36c0,0.3,0.05,0.55,0.16,0.74c0.11,0.19,0.28,0.36,0.51,0.5c0.23,0.14,0.52,0.26,0.88,0.37
			c0.35,0.1,0.77,0.21,1.25,0.31c0.54,0.11,1.02,0.24,1.44,0.37c0.42,0.14,0.79,0.31,1.09,0.52c0.3,0.21,0.53,0.47,0.69,0.78
			c0.16,0.31,0.24,0.69,0.24,1.14c0,0.46-0.09,0.86-0.27,1.2c-0.18,0.34-0.43,0.62-0.75,0.85c-0.32,0.23-0.7,0.39-1.15,0.5
			c-0.44,0.11-0.92,0.16-1.44,0.16c-1.57,0-2.92-0.49-4.03-1.46l0.48-0.81c0.37,0.39,0.86,0.71,1.48,0.98
			c0.62,0.27,1.32,0.4,2.08,0.4c0.8,0,1.43-0.14,1.88-0.43s0.68-0.72,0.68-1.31c0-0.31-0.06-0.57-0.19-0.78
			c-0.13-0.21-0.32-0.4-0.57-0.55c-0.25-0.16-0.57-0.29-0.95-0.4c-0.38-0.11-0.82-0.23-1.32-0.34c-0.53-0.12-0.99-0.25-1.39-0.38
			c-0.4-0.13-0.73-0.3-1-0.5c-0.27-0.2-0.47-0.44-0.61-0.71c-0.14-0.28-0.21-0.62-0.21-1.03c0-0.46,0.09-0.87,0.26-1.24
			c0.17-0.36,0.42-0.66,0.73-0.9c0.32-0.24,0.69-0.42,1.13-0.55c0.44-0.13,0.92-0.19,1.45-0.19c0.66,0,1.25,0.1,1.77,0.3
			c0.52,0.2,1,0.49,1.42,0.86L236.88,262.7z"/>
	</g>
	<g>
		<g>
			<path class="st16" d="M59.46,253.15l9.62-24.38h3.85l9.58,24.38h-5.01l-2.23-6.08h-8.55l-2.23,6.08H59.46z M71,233.88l-3.5,9.86
				h6.9L71,233.88z"/>
			<path class="st16" d="M85.11,253.15v-24.38h10.78c1.12,0,2.16,0.24,3.11,0.7c0.95,0.47,1.77,1.09,2.46,1.85
				c0.69,0.77,1.22,1.64,1.61,2.61c0.39,0.97,0.58,1.95,0.58,2.94c0,1.58-0.39,3.02-1.18,4.31c-0.79,1.29-1.86,2.23-3.21,2.8
				l5.73,9.17h-5.36l-5.12-8.17h-4.67v8.17H85.11z M89.85,240.82h5.94c0.43,0,0.84-0.1,1.22-0.31c0.38-0.21,0.7-0.49,0.98-0.84
				c0.27-0.36,0.49-0.77,0.65-1.25c0.16-0.48,0.24-1,0.24-1.55c0-0.57-0.09-1.1-0.27-1.58c-0.18-0.48-0.43-0.9-0.74-1.25
				c-0.31-0.35-0.66-0.63-1.06-0.82c-0.4-0.19-0.81-0.29-1.22-0.29h-5.73V240.82z"/>
			<path class="st16" d="M108.26,253.15V228.8H113v24.35H108.26z"/>
			<path class="st16" d="M135.01,248.99v4.16h-16.93v-24.38h16.62v4.16h-11.88v5.87h10.27v3.85h-10.27v6.35H135.01z"/>
			<path class="st16" d="M138.82,253.15v-24.38h4.74v20.23h12.43v4.16H138.82z"/>
			<path class="st16" d="M166.32,253.15v-24.38h8.86c1.99,0,3.74,0.32,5.24,0.96c1.5,0.64,2.75,1.51,3.76,2.61
				c1.01,1.1,1.76,2.39,2.27,3.86c0.5,1.48,0.76,3.05,0.76,4.72c0,1.85-0.28,3.53-0.84,5.03c-0.56,1.5-1.37,2.78-2.42,3.85
				c-1.05,1.06-2.32,1.89-3.79,2.47c-1.48,0.58-3.13,0.88-4.96,0.88H166.32z M182.43,240.92c0-1.17-0.16-2.24-0.48-3.23
				c-0.32-0.98-0.79-1.83-1.41-2.54s-1.38-1.26-2.28-1.65c-0.9-0.39-1.93-0.58-3.07-0.58h-4.12v16.07h4.12
				c1.17,0,2.2-0.21,3.11-0.62c0.9-0.41,1.66-0.98,2.27-1.7c0.61-0.72,1.07-1.57,1.39-2.56
				C182.27,243.13,182.43,242.07,182.43,240.92z"/>
			<path class="st16" d="M190.98,253.15V228.8h4.74v24.35H190.98z"/>
			<path class="st16" d="M217.73,248.99v4.16H200.8v-24.38h16.62v4.16h-11.88v5.87h10.27v3.85h-10.27v6.35H217.73z"/>
			<path class="st16" d="M219.96,249.58l13.77-16.66h-13.39v-4.16h18.85v3.57l-13.32,16.66h13.43v4.16h-19.33V249.58z"/>
		</g>
	</g>
</g>
<g>
	<path class="st9" d="M129.36,105.11c2.84,0,5.51,0.53,8,1.6c2.49,1.07,4.66,2.53,6.53,4.39c1.86,1.86,3.32,4.04,4.39,6.53
		c1.07,2.49,1.6,5.16,1.6,8v31.19h-10.51v-10.34h-20.03v10.34h-10.51v-31.19c0-2.84,0.53-5.51,1.6-8c1.07-2.49,2.53-4.66,4.39-6.53
		c1.86-1.86,4.04-3.32,6.53-4.39C123.85,105.64,126.51,105.11,129.36,105.11z M139.37,125.63c0-1.37-0.26-2.67-0.78-3.9
		c-0.52-1.23-1.23-2.3-2.13-3.2c-0.9-0.9-1.97-1.61-3.2-2.13c-1.23-0.52-2.53-0.78-3.9-0.78c-1.37,0-2.67,0.26-3.9,0.78
		c-1.23,0.52-2.3,1.23-3.2,2.13s-1.61,1.97-2.13,3.2c-0.52,1.23-0.78,2.53-0.78,3.9v10.34h20.03V125.63z"/>
	<path class="st9" d="M178.81,107.16c3.15,1.37,5.88,3.22,8.21,5.54c2.33,2.33,4.17,5.06,5.54,8.21c1.37,3.15,2.05,6.5,2.05,10.06
		c0,3.56-0.67,6.89-2.01,10.01c-1.34,3.12-3.17,5.86-5.5,8.21c-2.33,2.35-5.05,4.21-8.17,5.58c-3.12,1.37-6.46,2.05-10.01,2.05
		h-14.94v-10.42h14.86c2.13,0,4.13-0.41,5.99-1.23s3.49-1.93,4.88-3.32c1.4-1.4,2.5-3.02,3.32-4.88c0.82-1.86,1.23-3.86,1.23-5.99
		c0-2.13-0.41-4.13-1.23-5.99c-0.82-1.86-1.93-3.49-3.32-4.88s-3.02-2.5-4.88-3.32s-3.86-1.23-5.99-1.23h-14.86v-10.42h14.77
		C172.31,105.11,175.66,105.79,178.81,107.16z"/>
</g>
<rect x="153.98" y="105.22" class="st10" width="10.26" height="51.63"/>
<polygon class="st11" points="138.84,107.84 149.88,156.82 149.88,128.52 "/>
<polygon class="st11" points="153.98,132.33 168.92,156.82 153.98,156.86 "/>
<circle class="st17" cx="149.38" cy="132.39" r="73.49"/>
<circle class="st14" cx="149.38" cy="132.73" r="75.08"/>
<g id="Layer_x0020_1_30_">
	<g>
		<path class="st15" d="M71.48,162.43l-0.06-0.01c-0.12-0.11-0.23-0.32-0.19-0.61l3.09-19.34l-5.86-1.02
			c-0.13-0.01-0.25-0.12-0.23-0.32c-0.04-0.2-0.02-0.4,0.05-0.49l14.7-27.16c0.15-0.18,0.29-0.26,0.41-0.15
			c0.18,0.12,0.23,0.32,0.19,0.61l-4.08,19.44l7.25,0.77c0.13,0.01,0.18,0.12,0.23,0.32c0.04,0.2,0.02,0.4-0.05,0.49l-15.1,27.31
			C71.74,162.36,71.61,162.44,71.48,162.43z"/>
	</g>
</g>
<g id="Layer_x0020_1_27_">
	<g>
		<path class="st15" d="M216.39,162.43l-0.06-0.01c-0.12-0.11-0.23-0.32-0.19-0.61l3.09-19.34l-5.86-1.02
			c-0.13-0.01-0.25-0.12-0.23-0.32c-0.04-0.2-0.02-0.4,0.05-0.49l14.7-27.16c0.15-0.18,0.29-0.26,0.41-0.15
			c0.18,0.12,0.23,0.32,0.19,0.61l-4.08,19.44l7.25,0.77c0.13,0.01,0.18,0.12,0.23,0.32c0.04,0.2,0.02,0.4-0.05,0.49l-15.1,27.31
			C216.66,162.36,216.52,162.44,216.39,162.43z"/>
	</g>
</g>
</svg>
