<?xml version="1.0" encoding="utf-8"?>
<!-- Generator: Adobe Illustrator 24.3.0, SVG Export Plug-In . SVG Version: 6.00 Build 0)  -->
<svg version="1.1" id="Capa_1" xmlns="http://www.w3.org/2000/svg" xmlns:xlink="http://www.w3.org/1999/xlink" x="0px" y="0px"
	 viewBox="0 0 568 500" style="enable-background:new 0 0 568 500;" xml:space="preserve">
<style type="text/css">
	.st0{fill:#1A1A1A;stroke:#000000;stroke-miterlimit:10;}
	.st1{fill:#2A2B2A;stroke:#000000;stroke-miterlimit:10;}
	.st2{fill:#E2E3AC;stroke:#000000;stroke-miterlimit:10;}
	.st3{fill:#FF931E;}
	.st4{fill:url(#SVGID_1_);}
	.st5{fill:url(#SVGID_2_);}
	.st6{fill:url(#SVGID_3_);}
	.st7{fill:url(#SVGID_4_);}
	.st8{fill:url(#SVGID_5_);}
	.st9{fill:none;stroke:#E2E3AC;stroke-width:15;stroke-miterlimit:10;}
	.st10{stroke:#E2E3AC;stroke-width:7;stroke-miterlimit:10;}
	.st11{fill:#2A2B2A;stroke:#2A2B2A;stroke-width:15;stroke-miterlimit:10;}
</style>
<g>
	<g>
		<line class="st9" x1="236.88" y1="283.53" x2="335.53" y2="104.15"/>
		<g>
			<line class="st9" x1="143.11" y1="199.04" x2="192.56" y2="149.6"/>
			<line class="st9" x1="143.11" y1="196.13" x2="192.56" y2="245.58"/>
		</g>
		<g>
			<line class="st9" x1="424.89" y1="198.39" x2="375.44" y2="247.83"/>
			<line class="st9" x1="424.89" y1="201.3" x2="375.44" y2="151.85"/>
		</g>
	</g>
	<path class="st9" d="M496.6,381.5H71.4c-6.3,0-11.4-5.1-11.4-11.4V71.9c0-6.3,5.1-11.4,11.4-11.4h425.2c6.3,0,11.4,5.1,11.4,11.4
		v298.2C508,376.4,502.9,381.5,496.6,381.5z"/>
	<line class="st9" x1="67" y1="332.5" x2="507.5" y2="332.5"/>
	<g>
		<line class="st9" x1="209.5" y1="439.5" x2="358.5" y2="439.5"/>
		<rect x="248.89" y="381.5" class="st9" width="70.6" height="58"/>
	</g>
</g>
</svg>
