<?xml version="1.0" encoding="utf-8"?>
<!-- Generator: Adobe Illustrator 24.3.0, SVG Export Plug-In . SVG Version: 6.00 Build 0)  -->
<svg version="1.1" id="Capa_1" xmlns="http://www.w3.org/2000/svg" xmlns:xlink="http://www.w3.org/1999/xlink" x="0px" y="0px"
	 viewBox="0 0 568 500" style="enable-background:new 0 0 568 500;" xml:space="preserve">
<style type="text/css">
	.st0{fill:#1A1A1A;stroke:#000000;stroke-miterlimit:10;}
	.st1{fill:#2A2B2A;stroke:#000000;stroke-miterlimit:10;}
	.st2{fill:#E2E3AC;stroke:#000000;stroke-miterlimit:10;}
	.st3{fill:#FF931E;}
	.st4{fill:url(#SVGID_1_);}
	.st5{fill:url(#SVGID_2_);}
	.st6{fill:url(#SVGID_3_);}
	.st7{fill:url(#SVGID_4_);}
	.st8{fill:url(#SVGID_5_);}
	.st9{fill:none;stroke:#E2E3AC;stroke-width:15;stroke-miterlimit:10;}
	.st10{stroke:#E2E3AC;stroke-width:7;stroke-miterlimit:10;}
	.st11{fill:#2A2B2A;stroke:#2A2B2A;stroke-width:15;stroke-miterlimit:10;}
</style>
<g>
	<path class="st9" d="M471.35,381.5H46.15c-6.3,0-11.4-5.1-11.4-11.4V71.9c0-6.3,5.1-11.4,11.4-11.4h425.2c6.3,0,11.4,5.1,11.4,11.4
		v298.2C482.75,376.4,477.65,381.5,471.35,381.5z"/>
	<line class="st9" x1="41.75" y1="332.5" x2="306.25" y2="332.5"/>
	<rect x="199.75" y="272.5" class="st10" width="19" height="19"/>
	<rect x="279.75" y="272.5" class="st10" width="19" height="19"/>
	<rect x="239.75" y="272.5" class="st10" width="19" height="19"/>
	<path class="st9" d="M476.97,415.5H335.53c-3.19,0-5.78-2.59-5.78-5.78V163.28c0-3.19,2.59-5.78,5.78-5.78h141.44
		c3.19,0,5.78,2.59,5.78,5.78v246.44C482.75,412.91,480.16,415.5,476.97,415.5z"/>
	<path class="st9" d="M520.9,299.5H426.6c-3.23,0-5.85-2.62-5.85-5.85V131.17c0-3.23,2.62-5.85,5.85-5.85h94.29
		c3.23,0,5.85,2.62,5.85,5.85v162.48C526.75,296.88,524.13,299.5,520.9,299.5z"/>
	<line class="st9" x1="338.25" y1="157.5" x2="523.25" y2="157.5"/>
	<line class="st9" x1="413.25" y1="264.5" x2="533.25" y2="264.5"/>
	<g>
		<line class="st9" x1="353.25" y1="201.91" x2="384.25" y2="201.91"/>
		<line class="st9" x1="354.16" y1="201" x2="354.16" y2="232"/>
	</g>
	<g>
		<line class="st9" x1="442.25" y1="185.91" x2="473.25" y2="185.91"/>
		<line class="st9" x1="443.16" y1="185" x2="443.16" y2="216"/>
	</g>
	<g>
		<line class="st9" x1="184.25" y1="439.5" x2="333.25" y2="439.5"/>
		<rect x="223.64" y="381.5" class="st9" width="70.6" height="58"/>
	</g>
</g>
</svg>
