<?xml version="1.0" encoding="utf-8"?>
<!-- Generator: Adobe Illustrator 24.3.0, SVG Export Plug-In . SVG Version: 6.00 Build 0)  -->
<svg version="1.1" id="Capa_1" xmlns="http://www.w3.org/2000/svg" xmlns:xlink="http://www.w3.org/1999/xlink" x="0px" y="0px"
	 viewBox="0 0 568 500" style="enable-background:new 0 0 568 500;" xml:space="preserve">
<style type="text/css">
	.st0{fill:#1A1A1A;stroke:#000000;stroke-miterlimit:10;}
	.st1{fill:#2A2B2A;stroke:#000000;stroke-miterlimit:10;}
	.st2{fill:#E2E3AC;stroke:#000000;stroke-miterlimit:10;}
	.st3{fill:#FF931E;}
	.st4{fill:url(#SVGID_1_);}
	.st5{fill:url(#SVGID_2_);}
	.st6{fill:url(#SVGID_3_);}
	.st7{fill:url(#SVGID_4_);}
	.st8{fill:url(#SVGID_5_);}
	.st9{fill:none;stroke:#E2E3AC;stroke-width:15;stroke-miterlimit:10;}
	.st10{stroke:#E2E3AC;stroke-width:7;stroke-miterlimit:10;}
	.st11{fill:#2A2B2A;stroke:#2A2B2A;stroke-width:15;stroke-miterlimit:10;}
</style>
<g>
	<g>
		<rect x="342.88" y="81.16" class="st9" width="20.16" height="20.16"/>
		<rect x="427.75" y="81.16" class="st9" width="20.16" height="20.16"/>
		<rect x="385.31" y="81.16" class="st9" width="20.16" height="20.16"/>
		<path class="st9" d="M468.86,133.41H33.9c-6.3,0-11.4-5.1-11.4-11.4V60c0-6.3,5.1-11.4,11.4-11.4h434.96c6.3,0,11.4,5.1,11.4,11.4
			v62.01C480.26,128.3,475.15,133.41,468.86,133.41z"/>
	</g>
	<g>
		<rect x="342.88" y="191.49" class="st9" width="20.16" height="20.16"/>
		<rect x="427.75" y="191.49" class="st9" width="20.16" height="20.16"/>
		<rect x="385.31" y="191.49" class="st9" width="20.16" height="20.16"/>
		<path class="st9" d="M468.86,243.74H33.9c-6.3,0-11.4-5.1-11.4-11.4v-62.01c0-6.3,5.1-11.4,11.4-11.4h434.96
			c6.3,0,11.4,5.1,11.4,11.4v62.01C480.26,238.63,475.15,243.74,468.86,243.74z"/>
	</g>
	<g>
		<rect x="342.88" y="301.82" class="st9" width="20.16" height="20.16"/>
		<rect x="427.75" y="301.82" class="st9" width="20.16" height="20.16"/>
		<rect x="385.31" y="301.82" class="st9" width="20.16" height="20.16"/>
		<path class="st9" d="M468.86,354.07H33.9c-6.3,0-11.4-5.1-11.4-11.4v-62.01c0-6.3,5.1-11.4,11.4-11.4h434.96
			c6.3,0,11.4,5.1,11.4,11.4v62.01C480.26,348.96,475.15,354.07,468.86,354.07z"/>
	</g>
	<circle class="st11" cx="448.43" cy="354.33" r="97.07"/>
	<path class="st9" d="M349.24,373.54c-0.13,0.5-0.06,1.02,0.19,1.46l22.47,38.91c0.25,0.44,0.67,0.77,1.17,0.9
		c0.48,0.13,1.02,0.06,1.46-0.19l19.55-11.29c5.76,4.71,12.16,8.41,19.07,11.02v22.57c0,1.06,0.86,1.92,1.92,1.92h44.92
		c1.06,0,1.92-0.86,1.92-1.92v-22.58c6.91-2.61,13.31-6.32,19.07-11.02l19.53,11.29c0.44,0.25,0.96,0.33,1.46,0.19
		s0.9-0.46,1.17-0.9l22.47-38.91c0.25-0.44,0.33-0.96,0.19-1.46c-0.13-0.5-0.46-0.9-0.9-1.17l-19.55-11.29c0.6-3.69,0.9-7.37,0.9-11
		s-0.31-7.32-0.9-11l19.55-11.29c0.44-0.25,0.77-0.67,0.9-1.17c0.13-0.5,0.06-1.02-0.19-1.46l-22.47-38.91
		c-0.25-0.44-0.67-0.77-1.17-0.9c-0.48-0.13-1.02-0.06-1.46,0.19l-19.55,11.29c-5.76-4.71-12.16-8.41-19.05-11.02v-22.53
		c0-1.06-0.86-1.92-1.92-1.92h-44.94c-1.06,0-1.92,0.86-1.92,1.92v22.57c-6.91,2.61-13.31,6.32-19.05,11.02l-19.55-11.29
		c-0.44-0.25-0.96-0.33-1.46-0.19s-0.9,0.46-1.17,0.9l-22.47,38.89c-0.25,0.44-0.33,0.96-0.19,1.46c0.13,0.5,0.46,0.9,0.9,1.17
		l19.55,11.29c-0.6,3.69-0.9,7.37-0.9,11s0.31,7.32,0.9,11l-19.55,11.29C349.7,372.62,349.37,373.04,349.24,373.54z M372.78,363.75
		c0.71-0.4,1.08-1.21,0.92-2c-0.71-3.92-1.08-7.84-1.08-11.68c0-3.84,0.36-7.76,1.06-11.66c0.15-0.81-0.23-1.59-0.92-2l-19.05-11
		l20.55-35.59l19.05,11c0.71,0.4,1.59,0.33,2.21-0.19c6.01-5.11,12.81-9.05,20.18-11.68c0.77-0.27,1.27-1,1.27-1.81v-21.99h41.1
		v21.97c0,0.81,0.52,1.54,1.27,1.81c7.37,2.63,14.17,6.57,20.18,11.68c0.61,0.54,1.5,0.61,2.21,0.19l19.05-11l20.55,35.59l-19.05,11
		c-0.71,0.4-1.08,1.21-0.92,2c0.69,3.92,1.06,7.84,1.06,11.68c0,3.84-0.36,7.76-1.06,11.66c-0.15,0.81,0.23,1.59,0.92,2l19.05,11
		l-20.55,35.59l-19.05-11c-0.71-0.4-1.59-0.33-2.21,0.19c-6.01,5.11-12.81,9.05-20.18,11.68c-0.77,0.27-1.27,1-1.27,1.81v21.97
		h-41.1v-21.97c0-0.81-0.52-1.54-1.27-1.81c-7.37-2.63-14.17-6.57-20.18-11.68c-0.61-0.52-1.5-0.61-2.21-0.19l-19.05,11
		l-20.53-35.59L372.78,363.75z"/>
	<path class="st9" d="M437.52,382.72c17.99,0,32.65-14.65,32.65-32.65s-14.65-32.65-32.65-32.65s-32.65,14.65-32.65,32.65
		S419.53,382.72,437.52,382.72z M437.52,321.27c15.88,0,28.81,12.92,28.81,28.81c0,15.88-12.92,28.81-28.81,28.81
		c-15.88,0-28.81-12.92-28.81-28.81C408.72,334.19,421.64,321.27,437.52,321.27z"/>
</g>
</svg>
